<svg preserveAspectRatio="none" width="100%" height="100%" overflow="visible" style="display: block;" viewBox="0 0 56.6667 56.6667" fill="none" xmlns="http://www.w3.org/2000/svg">
<g id="icon" filter="url(#filter0_di_0_185)">
<path d="M28.3333 30.5C29.4861 30.5 30.4688 30.0938 31.2813 29.2813C32.0938 28.4688 32.5 27.4861 32.5 26.3333C32.5 25.1806 32.0938 24.1979 31.2813 23.3854C30.4688 22.5729 29.4861 22.1667 28.3333 22.1667C27.1806 22.1667 26.1979 22.5729 25.3854 23.3854C24.5729 24.1979 24.1667 25.1806 24.1667 26.3333C24.1667 27.4861 24.5729 28.4688 25.3854 29.2813C26.1979 30.0938 27.1806 30.5 28.3333 30.5ZM28.3333 34.6667C27.1806 34.6667 26.0972 34.4479 25.0833 34.0104C24.0694 33.5729 23.1875 32.9792 22.4375 32.2292C21.6875 31.4792 21.0938 30.5972 20.6563 29.5833C20.2187 28.5694 20 27.4861 20 26.3333C20 25.1806 20.2187 24.0972 20.6563 23.0833C21.0938 22.0694 21.6875 21.1875 22.4375 20.4375C23.1875 19.6875 24.0694 19.0938 25.0833 18.6563C26.0972 18.2187 27.1806 18 28.3333 18C29.4861 18 30.5694 18.2187 31.5833 18.6563C32.5972 19.0938 33.4792 19.6875 34.2292 20.4375C34.9792 21.1875 35.5729 22.0694 36.0104 23.0833C36.4479 24.0972 36.6667 25.1806 36.6667 26.3333C36.6667 27.4861 36.4479 28.5694 36.0104 29.5833C35.5729 30.5972 34.9792 31.4792 34.2292 32.2292C33.4792 32.9792 32.5972 33.5729 31.5833 34.0104C30.5694 34.4479 29.4861 34.6667 28.3333 34.6667ZM28.3333 33C30.1944 33 31.7708 32.3542 33.0625 31.0625C34.3542 29.7708 35 28.1944 35 26.3333C35 24.4722 34.3542 22.8958 33.0625 21.6042C31.7708 20.3125 30.1944 19.6667 28.3333 19.6667C26.4722 19.6667 24.8958 20.3125 23.6042 21.6042C22.3125 22.8958 21.6667 24.4722 21.6667 26.3333C21.6667 28.1944 22.3125 29.7708 23.6042 31.0625C24.8958 32.3542 26.4722 33 28.3333 33Z" fill="url(#paint0_linear_0_185)"/>
</g>
<defs>
<filter id="filter0_di_0_185" x="0" y="0" width="56.6667" height="56.6667" filterUnits="userSpaceOnUse" color-interpolation-filters="sRGB">
<feFlood flood-opacity="0" result="BackgroundImageFix"/>
<feColorMatrix in="SourceAlpha" type="matrix" values="0 0 0 0 0 0 0 0 0 0 0 0 0 0 0 0 0 0 127 0" result="hardAlpha"/>
<feOffset dy="2"/>
<feGaussianBlur stdDeviation="10"/>
<feColorMatrix type="matrix" values="0 0 0 0 0 0 0 0 0 0.254902 0 0 0 0 0.447059 0 0 0 0.08 0"/>
<feBlend mode="normal" in2="BackgroundImageFix" result="effect1_dropShadow_0_185"/>
<feBlend mode="normal" in="SourceGraphic" in2="effect1_dropShadow_0_185" result="shape"/>
<feColorMatrix in="SourceAlpha" type="matrix" values="0 0 0 0 0 0 0 0 0 0 0 0 0 0 0 0 0 0 127 0" result="hardAlpha"/>
<feOffset/>
<feGaussianBlur stdDeviation="1"/>
<feComposite in2="hardAlpha" operator="arithmetic" k2="-1" k3="1"/>
<feColorMatrix type="matrix" values="0 0 0 0 0 0 0 0 0 0.254902 0 0 0 0 0.447059 0 0 0 0.12 0"/>
<feBlend mode="normal" in2="shape" result="effect2_innerShadow_0_185"/>
</filter>
<linearGradient id="paint0_linear_0_185" x1="28.3333" y1="18" x2="28.3333" y2="34.6667" gradientUnits="userSpaceOnUse">
<stop stop-color="#10B981"/>
<stop offset="1" stop-color="#00664C"/>
</linearGradient>
</defs>
</svg>
