<svg preserveAspectRatio="none" width="100%" height="100%" overflow="visible" style="display: block;" viewBox="0 0 19.7228 17.3167" fill="none" xmlns="http://www.w3.org/2000/svg">
<path id="Icon" d="M9.86141 6.11836V9.56398M9.86141 13.0096H9.87002M8.3884 1.69072L1.09228 13.871C0.941852 14.1315 0.862256 14.4269 0.861414 14.7277C0.860572 15.0285 0.938512 15.3243 1.08748 15.5857C1.23645 15.847 1.45125 16.0648 1.71052 16.2174C1.96979 16.3699 2.26448 16.4519 2.56529 16.4552H17.1575C17.4583 16.4519 17.753 16.3699 18.0123 16.2174C18.2716 16.0648 18.4864 15.847 18.6353 15.5857C18.7843 15.3243 18.8622 15.0285 18.8614 14.7277C18.8606 14.4269 18.781 14.1315 18.6305 13.871L11.3344 1.69072C11.1809 1.43756 10.9646 1.22825 10.7066 1.08299C10.4486 0.937721 10.1575 0.861407 9.86141 0.861407C9.56531 0.861407 9.27421 0.937721 9.0162 1.08299C8.75818 1.22825 8.54196 1.43756 8.3884 1.69072Z" stroke="var(--stroke-0, #D82525)" stroke-width="1.72281" stroke-linecap="round" stroke-linejoin="round"/>
</svg>
