<svg preserveAspectRatio="none" width="100%" height="100%" overflow="visible" style="display: block;" viewBox="0 0 17.532 17.5627" fill="none" xmlns="http://www.w3.org/2000/svg">
<path id="Icon" d="M10.6764 3.83C11.4246 3.97597 12.1122 4.34187 12.6512 4.88088C13.1902 5.41989 13.5561 6.10747 13.702 6.85564M10.6764 0.766053C12.2308 0.938734 13.6803 1.63481 14.7869 2.74C15.8934 3.84519 16.5913 5.2938 16.766 6.84798M16 12.9605V15.2585C16.0009 15.4718 15.9572 15.683 15.8717 15.8785C15.7862 16.0739 15.6609 16.2494 15.5037 16.3936C15.3465 16.5378 15.1609 16.6476 14.9588 16.7159C14.7567 16.7843 14.5426 16.8097 14.3302 16.7905C11.9731 16.5344 9.70896 15.7289 7.71969 14.4389C5.86894 13.2629 4.29983 11.6937 3.12378 9.84298C1.82925 7.84468 1.02363 5.56955 0.772203 3.20189C0.753061 2.99007 0.778235 2.77658 0.846121 2.57502C0.914007 2.37347 1.02312 2.18825 1.16651 2.03117C1.3099 1.87409 1.48442 1.74859 1.67897 1.66266C1.87352 1.57672 2.08383 1.53224 2.29651 1.53204H4.59447C4.96621 1.52838 5.3266 1.66002 5.60845 1.90242C5.89031 2.14482 6.07442 2.48144 6.12644 2.84953C6.22343 3.58493 6.40331 4.307 6.66263 5.00195C6.76569 5.27612 6.788 5.57408 6.72691 5.86053C6.66581 6.14698 6.52389 6.40992 6.31794 6.61818L5.34514 7.59099C6.43556 9.50867 8.02337 11.0965 9.94105 12.1869L10.9139 11.2141C11.1221 11.0082 11.3851 10.8662 11.6715 10.8051C11.958 10.744 12.2559 10.7663 12.5301 10.8694C13.225 11.1287 13.9471 11.3086 14.6825 11.4056C15.0546 11.4581 15.3944 11.6455 15.6373 11.9322C15.8802 12.2189 16.0093 12.5849 16 12.9605Z" stroke="var(--stroke-0, black)" stroke-width="1.53197" stroke-linecap="round" stroke-linejoin="round"/>
</svg>
