<svg preserveAspectRatio="none" width="100%" height="100%" overflow="visible" style="display: block;" viewBox="0 0 16 18.0869" fill="none" xmlns="http://www.w3.org/2000/svg">
<path id="Vector" d="M4.86956 8.34782C3.94707 8.34782 3.06236 7.98136 2.41006 7.32906C1.75776 6.67676 1.3913 5.79205 1.3913 4.86956V2.08696C1.3913 1.90246 1.4646 1.72552 1.59506 1.59506C1.72552 1.4646 1.90246 1.3913 2.08696 1.3913H2.78261C2.96711 1.3913 3.14405 1.31801 3.27451 1.18755C3.40497 1.05709 3.47826 0.88015 3.47826 0.695652C3.47826 0.511154 3.40497 0.334212 3.27451 0.203752C3.14405 0.0732917 2.96711 0 2.78261 0H2.08696C1.53346 0 1.00264 0.219875 0.611255 0.611255C0.219875 1.00264 0 1.53346 0 2.08696V4.86956C0.000894205 5.65547 0.192537 6.42941 0.558469 7.12492C0.924401 7.82044 1.45369 8.41673 2.10087 8.8626C2.72329 9.41027 3.22798 10.0787 3.58433 10.8272C3.94067 11.5758 4.14126 12.389 4.17391 13.2174C4.17391 14.5089 4.68695 15.7475 5.60017 16.6607C6.51339 17.5739 7.75199 18.0869 9.04347 18.0869C10.335 18.0869 11.5736 17.5739 12.4868 16.6607C13.4 15.7475 13.913 14.5089 13.913 13.2174V12.4243C14.5688 12.255 15.1403 11.8524 15.5204 11.2918C15.9005 10.7313 16.0632 10.0513 15.9778 9.37947C15.8925 8.7076 15.565 8.08992 15.0569 7.64221C14.5487 7.19449 13.8947 6.94749 13.2174 6.94749C12.5401 6.94749 11.8861 7.19449 11.3779 7.64221C10.8697 8.08992 10.5423 8.7076 10.457 9.37947C10.3716 10.0513 10.5342 10.7313 10.9144 11.2918C11.2945 11.8524 11.866 12.255 12.5217 12.4243V13.2174C12.5217 14.1399 12.1553 15.0246 11.503 15.6769C10.8507 16.3292 9.96597 16.6956 9.04347 16.6956C8.12098 16.6956 7.23627 16.3292 6.58397 15.6769C5.93167 15.0246 5.56522 14.1399 5.56522 13.2174C5.59963 12.3879 5.80238 11.5742 6.16115 10.8255C6.51992 10.0769 7.02721 9.40904 7.65217 8.8626C8.29678 8.41519 8.82336 7.81821 9.18682 7.12279C9.55028 6.42738 9.73979 5.65423 9.73913 4.86956V2.08696C9.73913 1.53346 9.51925 1.00264 9.12787 0.611255C8.73649 0.219875 8.20567 0 7.65217 0H6.95652C6.77202 0 6.59508 0.0732917 6.46462 0.203752C6.33416 0.334212 6.26087 0.511154 6.26087 0.695652C6.26087 0.88015 6.33416 1.05709 6.46462 1.18755C6.59508 1.31801 6.77202 1.3913 6.95652 1.3913H7.65217C7.83667 1.3913 8.01361 1.4646 8.14407 1.59506C8.27453 1.72552 8.34782 1.90246 8.34782 2.08696V4.86956C8.34782 5.32633 8.25786 5.77863 8.08306 6.20064C7.90826 6.62264 7.65205 7.00608 7.32906 7.32906C7.00608 7.65205 6.62264 7.90826 6.20064 8.08306C5.77863 8.25786 5.32633 8.34782 4.86956 8.34782ZM13.2174 11.1304C12.8484 11.1304 12.4945 10.9838 12.2336 10.7229C11.9727 10.462 11.8261 10.1081 11.8261 9.73913C11.8261 9.37013 11.9727 9.01625 12.2336 8.75533C12.4945 8.49441 12.8484 8.34782 13.2174 8.34782C13.5864 8.34782 13.9403 8.49441 14.2012 8.75533C14.4621 9.01625 14.6087 9.37013 14.6087 9.73913C14.6087 10.1081 14.4621 10.462 14.2012 10.7229C13.9403 10.9838 13.5864 11.1304 13.2174 11.1304Z" fill="var(--fill-0, black)"/>
</svg>
