<svg width="24" height="24" viewBox="0 0 24 24" fill="none" xmlns="http://www.w3.org/2000/svg">
<path d="M21.6902 3.00108C21.8492 2.98697 22.0374 3.11274 21.9936 3.29055C21.9374 3.52906 21.5436 3.62769 21.3323 3.71446C20.1283 4.20886 19.8868 5.11356 19.6146 6.28963C19.2933 7.67807 19.1299 9.34901 18.1855 10.4864C17.981 10.7326 17.7113 10.9186 17.4498 11.1005C17.3674 11.29 17.2284 11.9588 17.176 12.1873L16.6757 14.3772C16.6108 14.6607 16.5451 15.0214 16.4267 15.2854C16.3884 15.3709 16.2432 15.4767 16.1606 15.5295C15.6315 15.8681 15.0923 16.1997 14.5594 16.5323L11.3821 18.514L8.57526 20.2657C8.2274 20.482 7.87565 20.6916 7.53054 20.912C7.37025 21.0144 7.19071 21.1708 6.99187 21.1345C6.70956 20.989 5.9566 19.6668 5.75175 19.3377L3.83111 16.2577C3.48672 15.6702 2.1097 13.6563 2.00485 13.1902C1.98716 13.1116 2.02038 13.0392 2.06371 12.9751C2.12209 12.8888 2.21356 12.8252 2.29938 12.7684C3.10101 12.2381 11.1308 7.2296 11.2623 7.21211C11.4051 7.19311 11.5825 7.22455 11.7238 7.25082C12.7249 7.43684 13.7249 7.71067 14.7177 7.94002C15.5993 8.14366 16.5165 8.30773 17.3832 8.5626C17.5443 8.60996 17.7003 8.67229 17.8389 8.76811C17.9819 9.02662 17.6784 10.0277 17.6 10.3499C19.0584 8.73864 18.6886 6.30305 19.6713 4.46254C20.0721 3.71188 20.8976 3.25792 21.6902 3.00108ZM2.94896 13.3094L5.82972 17.9356C6.24454 18.6037 6.85105 19.5093 7.21801 20.1774C8.1436 19.5594 9.11774 18.99 10.0548 18.3905C10.3546 18.1987 10.9581 17.8564 11.2111 17.6668L14.0382 15.91C14.5671 15.5804 15.2234 15.1947 15.7239 14.8423C15.7997 14.5895 16.5226 11.474 16.5135 11.4C16.3191 11.4092 16.0652 11.4138 15.8761 11.4326C15.5636 11.7539 15.2606 12.0257 14.78 12.0323C14.471 12.0366 14.0835 11.8916 13.8617 11.6728C13.0322 10.8544 13.5925 9.46322 14.7556 9.46622C15.1049 9.46877 15.4389 9.61018 15.6839 9.85924C15.961 10.141 16.0782 10.5433 16.0315 10.9313C16.2393 10.9057 16.4824 10.904 16.6395 10.7713C16.755 10.5712 16.9343 9.58237 17.0131 9.29059C16.4601 9.16919 11.6916 8.00665 11.4648 8.02918C11.2126 8.13822 10.7853 8.42411 10.5365 8.57921L8.88104 9.6124L2.94896 13.3094ZM15.0234 10.1193C15.038 10.3423 15.037 10.4164 15.1092 10.6302C15.2106 10.7247 15.2876 10.808 15.4283 10.832C15.4238 10.5597 15.3225 10.2027 15.0234 10.1193ZM14.4593 10.1029C14.3258 10.2099 14.2312 10.2803 14.1561 10.4404C13.9535 10.8724 14.172 11.3632 14.6688 11.4107C14.7025 11.4138 14.7363 11.4162 14.7701 11.4179C14.9247 11.3936 15.0656 11.3725 15.2215 11.3561C14.2301 10.8201 14.6799 10.3494 14.4593 10.1029Z" fill="#999999"/>
<path d="M9.42334 10.7487C9.9063 10.6968 10.0331 10.9267 10.0193 11.3711C9.9658 13.078 9.89236 14.7833 9.87222 16.4913C9.8685 16.8082 9.89714 17.1491 9.61049 17.3416C9.41507 17.3994 9.08085 17.4015 9.03282 17.2235C8.89242 16.7026 8.99196 15.4929 9.01071 14.985L9.07037 12.9227C9.09129 12.289 9.08984 11.6471 9.15701 11.0159C9.16992 10.8944 9.33002 10.8062 9.42334 10.7487Z" fill="#999999"/>
<path d="M7.1353 11.5964C7.82063 11.4357 8.50574 11.8638 8.66173 12.5502C8.81769 13.2367 8.38486 13.9188 7.69737 14.07C7.01656 14.2198 6.34248 13.7921 6.18805 13.1123C6.03359 12.4326 6.45661 11.7556 7.1353 11.5964ZM7.03365 13.2189C7.18741 13.3748 7.419 13.4244 7.62315 13.3454C7.81011 13.273 7.94276 13.1045 7.96934 12.9058C7.9959 12.7071 7.91213 12.5097 7.75078 12.3907C7.5894 12.2717 7.37606 12.2501 7.1941 12.3342C7.03167 12.4093 6.91599 12.5588 6.88407 12.7349C6.85213 12.911 6.90793 13.0916 7.03365 13.2189Z" fill="#999999"/>
<path d="M11.3814 13.8215C11.8362 13.7571 12.2903 13.9438 12.5683 14.3095C12.8464 14.6752 12.9049 15.1626 12.7213 15.5837C12.5376 16.0048 12.1406 16.2936 11.6834 16.3387C10.997 16.4064 10.3824 15.9128 10.3002 15.228C10.218 14.5431 10.6984 13.9182 11.3814 13.8215ZM11.6824 15.6169C11.8365 15.5821 11.9683 15.4829 12.0443 15.3445C12.1203 15.206 12.1332 15.0416 12.0798 14.8929C11.9833 14.6245 11.6979 14.4741 11.4219 14.5463C11.1311 14.6223 10.9548 14.9175 11.0259 15.2096C11.097 15.5017 11.3891 15.6829 11.6824 15.6169Z" fill="#999999"/>
</svg>
