<svg width="50" height="52" viewBox="0 0 50 52" fill="none" xmlns="http://www.w3.org/2000/svg">
<g filter="url(#filter0_di_949_11240)">
<path d="M26.4382 31.7889C26.2819 32.0583 26.0576 32.2819 25.7877 32.4374C25.5178 32.5928 25.2118 32.6747 24.9004 32.6747C24.5889 32.6747 24.283 32.5928 24.0131 32.4374C23.7432 32.2819 23.5189 32.0583 23.3626 31.7889M30.2337 20.2334C30.2337 18.8189 29.6718 17.4623 28.6716 16.4621C27.6714 15.4619 26.3149 14.9 24.9004 14.9C23.4859 14.9 22.1293 15.4619 21.1292 16.4621C20.129 17.4623 19.5671 18.8189 19.5671 20.2334C19.5671 26.4556 16.9004 28.2334 16.9004 28.2334H32.9004C32.9004 28.2334 30.2337 26.4556 30.2337 20.2334Z" stroke="#999999" stroke-width="1.8" stroke-linecap="round" stroke-linejoin="round"/>
</g>
<defs>
<filter id="filter0_di_949_11240" x="-3.09961" y="-2.21094" width="56" height="56" filterUnits="userSpaceOnUse" color-interpolation-filters="sRGB">
<feFlood flood-opacity="0" result="BackgroundImageFix"/>
<feColorMatrix in="SourceAlpha" type="matrix" values="0 0 0 0 0 0 0 0 0 0 0 0 0 0 0 0 0 0 127 0" result="hardAlpha"/>
<feOffset dy="2"/>
<feGaussianBlur stdDeviation="8"/>
<feColorMatrix type="matrix" values="0 0 0 0 0 0 0 0 0 0.254902 0 0 0 0 0.447059 0 0 0 0.08 0"/>
<feBlend mode="normal" in2="BackgroundImageFix" result="effect1_dropShadow_949_11240"/>
<feBlend mode="normal" in="SourceGraphic" in2="effect1_dropShadow_949_11240" result="shape"/>
<feColorMatrix in="SourceAlpha" type="matrix" values="0 0 0 0 0 0 0 0 0 0 0 0 0 0 0 0 0 0 127 0" result="hardAlpha"/>
<feOffset/>
<feGaussianBlur stdDeviation="1"/>
<feComposite in2="hardAlpha" operator="arithmetic" k2="-1" k3="1"/>
<feColorMatrix type="matrix" values="0 0 0 0 0 0 0 0 0 0.254902 0 0 0 0 0.447059 0 0 0 0.16 0"/>
<feBlend mode="normal" in2="shape" result="effect2_innerShadow_949_11240"/>
</filter>
</defs>
</svg>
