<svg width="24" height="24" viewBox="0 0 24 24" fill="none" xmlns="http://www.w3.org/2000/svg">
<rect width="24" height="24" fill="white"/>
<path d="M3 3.74988H6.27273L8.46545 14.7053C8.54027 15.082 8.7452 15.4204 9.04436 15.6612C9.34351 15.902 9.71784 16.03 10.1018 16.0226H18.0545C18.4385 16.03 18.8129 15.902 19.112 15.6612C19.4112 15.4204 19.6161 15.082 19.6909 14.7053L21 7.84079H7.09091M10.3636 20.1135C10.3636 20.5654 9.99732 20.9317 9.54545 20.9317C9.09359 20.9317 8.72727 20.5654 8.72727 20.1135C8.72727 19.6616 9.09359 19.2953 9.54545 19.2953C9.99732 19.2953 10.3636 19.6616 10.3636 20.1135ZM19.3636 20.1135C19.3636 20.5654 18.9973 20.9317 18.5455 20.9317C18.0936 20.9317 17.7273 20.5654 17.7273 20.1135C17.7273 19.6616 18.0936 19.2953 18.5455 19.2953C18.9973 19.2953 19.3636 19.6616 19.3636 20.1135Z" stroke="#999999" stroke-width="1.8" stroke-linecap="round" stroke-linejoin="round"/>
</svg>
