<svg width="48" height="50" viewBox="0 0 48 50" fill="none" xmlns="http://www.w3.org/2000/svg">
<g filter="url(#filter0_di_949_11242)">
<path d="M30.9004 30.65V28.9C30.9004 27.9718 30.5316 27.0815 29.8753 26.4252C29.2189 25.7688 28.3286 25.4 27.4004 25.4H20.4004C19.4721 25.4 18.5819 25.7688 17.9255 26.4252C17.2691 27.0815 16.9004 27.9718 16.9004 28.9V30.65M27.4004 18.4C27.4004 20.333 25.8334 21.9 23.9004 21.9C21.9674 21.9 20.4004 20.333 20.4004 18.4C20.4004 16.467 21.9674 14.9 23.9004 14.9C25.8334 14.9 27.4004 16.467 27.4004 18.4Z" stroke="#999999" stroke-width="1.8" stroke-linecap="round" stroke-linejoin="round"/>
</g>
<defs>
<filter id="filter0_di_949_11242" x="-4.09961" y="-3.22498" width="56" height="56" filterUnits="userSpaceOnUse" color-interpolation-filters="sRGB">
<feFlood flood-opacity="0" result="BackgroundImageFix"/>
<feColorMatrix in="SourceAlpha" type="matrix" values="0 0 0 0 0 0 0 0 0 0 0 0 0 0 0 0 0 0 127 0" result="hardAlpha"/>
<feOffset dy="2"/>
<feGaussianBlur stdDeviation="8"/>
<feColorMatrix type="matrix" values="0 0 0 0 0 0 0 0 0 0.254902 0 0 0 0 0.447059 0 0 0 0.08 0"/>
<feBlend mode="normal" in2="BackgroundImageFix" result="effect1_dropShadow_949_11242"/>
<feBlend mode="normal" in="SourceGraphic" in2="effect1_dropShadow_949_11242" result="shape"/>
<feColorMatrix in="SourceAlpha" type="matrix" values="0 0 0 0 0 0 0 0 0 0 0 0 0 0 0 0 0 0 127 0" result="hardAlpha"/>
<feOffset/>
<feGaussianBlur stdDeviation="1"/>
<feComposite in2="hardAlpha" operator="arithmetic" k2="-1" k3="1"/>
<feColorMatrix type="matrix" values="0 0 0 0 0 0 0 0 0 0.254902 0 0 0 0 0.447059 0 0 0 0.16 0"/>
<feBlend mode="normal" in2="shape" result="effect2_innerShadow_949_11242"/>
</filter>
</defs>
</svg>
