<svg width="24" height="24" viewBox="0 0 24 24" fill="none" xmlns="http://www.w3.org/2000/svg">
<path d="M3.90039 10.5753C3.90039 7.6971 3.90039 6.258 4.24059 5.7738C4.57989 5.2905 5.93259 4.827 8.63889 3.9009L9.15459 3.7245C10.5649 3.2412 11.2696 3 12.0004 3C12.7312 3 13.4359 3.2412 14.8462 3.7245L15.3619 3.9009C18.0682 4.827 19.4209 5.2905 19.7602 5.7738C20.1004 6.258 20.1004 7.698 20.1004 10.5753V11.9919C20.1004 17.0661 16.2853 19.5294 13.8913 20.5743C13.2424 20.8578 12.9184 21 12.0004 21C11.0824 21 10.7584 20.8578 10.1095 20.5743C7.71549 19.5285 3.90039 17.067 3.90039 11.9919V10.5753Z" stroke="#00B82E" stroke-width="1.618"/>
<path d="M8.5 11.5L11.0361 13.8L15.5 9" stroke="#00B82E" stroke-width="1.6" stroke-linecap="round" stroke-linejoin="round"/>
</svg>
