<svg width="16" height="21" viewBox="0 0 16 21" fill="none" xmlns="http://www.w3.org/2000/svg">
<path d="M6.57031 0C6.8115 6.14808e-05 7.04922 0.0608781 7.26074 0.176758C7.47094 0.291983 7.64869 0.45859 7.77832 0.660156C8.53402 1.82847 9.94827 4.12177 11.1309 6.65723C11.3175 7.05742 11.1441 7.53373 10.7441 7.7207C10.3438 7.90743 9.86749 7.73425 9.68066 7.33398C8.6088 5.03592 7.33009 2.93069 6.56934 1.74121C5.84212 2.87831 4.64224 4.85329 3.60156 7.0332C2.47846 9.38587 1.59975 11.8574 1.59961 13.7471C1.59966 15.0653 2.12355 16.3296 3.05566 17.2617C3.98781 18.1939 5.25207 18.7177 6.57031 18.7178C7.8884 18.7177 9.15288 18.1937 10.085 17.2617C10.3974 16.9497 10.9045 16.9495 11.2168 17.2617C11.5289 17.5739 11.5285 18.0801 11.2168 18.3926C9.98464 19.6247 8.31284 20.3173 6.57031 20.3174C4.82773 20.3173 3.157 19.6248 1.9248 18.3926C0.692637 17.1604 5.55626e-05 15.4896 0 13.7471C0.0001372 11.4734 1.02235 8.72314 2.1582 6.34375C3.30837 3.93454 4.63752 1.77969 5.3623 0.65918V0.660156C5.49194 0.458646 5.66972 0.291954 5.87988 0.176758L6.04297 0.0996094C6.2102 0.0337003 6.38949 2.41194e-05 6.57031 0ZM3.36523 12.9473C3.80681 12.9478 4.1643 13.3064 4.16406 13.748C4.16385 14.0639 4.226 14.377 4.34668 14.6689C4.46745 14.961 4.64479 15.2266 4.86816 15.4502C5.0916 15.6738 5.35739 15.8516 5.64941 15.9727C5.94131 16.0936 6.25436 16.1553 6.57031 16.1553C7.01199 16.1554 7.37 16.5144 7.37012 16.9561C7.36986 17.3976 7.0119 17.7558 6.57031 17.7559C6.04397 17.7559 5.52237 17.6517 5.03613 17.4502C4.55004 17.2487 4.10827 16.9533 3.73633 16.5811C3.36438 16.2088 3.06926 15.7666 2.86816 15.2803C2.66712 14.794 2.56403 14.2723 2.56445 13.7461C2.5651 13.3045 2.92359 12.9469 3.36523 12.9473ZM11.9131 7.86426C12.0318 7.86429 12.1512 7.89823 12.2539 7.96777L12.2549 7.9668L15.627 9.8623H15.6279C15.8277 9.96846 15.9607 10.1765 15.9609 10.415V14.2627C15.9609 14.5 15.8288 14.7057 15.6309 14.8125L15.6318 14.8135L12.2549 16.7109L12.2539 16.71C12.1512 16.7796 12.0319 16.8134 11.9131 16.8135C11.7941 16.8134 11.675 16.7798 11.5723 16.71V16.7109L8.19531 14.8135V14.8125C8.09674 14.7596 8.01388 14.6818 7.95605 14.5859C7.89726 14.4883 7.86582 14.3757 7.86621 14.2617V10.415C7.86642 10.2065 7.96792 10.0213 8.12695 9.90723L8.19922 9.8623L11.5723 7.9668V7.96777C11.6749 7.89809 11.7943 7.86434 11.9131 7.86426ZM9.12109 13.8926L11.2861 15.1133V12.7041L9.12109 11.4883V13.8926ZM12.541 12.7041V15.1133L14.7061 13.8926V11.4883L12.541 12.7041ZM9.77344 10.415L11.9131 11.6172L14.0527 10.415L11.9131 9.21289L9.77344 10.415Z" fill="#00B82E"/>
</svg>
