<svg width="25" height="24" viewBox="0 0 25 24" fill="none" xmlns="http://www.w3.org/2000/svg">
<path d="M12.5 1.875C13.4156 1.87467 14.3146 2.12226 15.1006 2.5918C15.8866 3.06134 16.5302 3.73564 16.9639 4.54199H19.4336C20.07 4.54199 20.6808 4.79416 21.1309 5.24414C21.5809 5.69417 21.8339 6.30498 21.834 6.94141V19.4746C21.834 20.1111 21.5808 20.7218 21.1309 21.1719C20.6808 21.622 20.0701 21.875 19.4336 21.875H5.56738C4.93086 21.875 4.3202 21.622 3.87012 21.1719C3.42003 20.7218 3.16699 20.1111 3.16699 19.4746V6.94141C3.16706 6.30498 3.42009 5.69417 3.87012 5.24414C4.32017 4.79426 4.93102 4.54199 5.56738 4.54199H8.03809C8.4716 3.73599 9.1158 3.0623 9.90137 2.59277C10.6869 2.1233 11.5849 1.87512 12.5 1.875ZM5.56738 6.1416C5.35521 6.1416 5.15101 6.22595 5.00098 6.37598C4.85111 6.52593 4.76667 6.7294 4.7666 6.94141V19.4746C4.7666 19.9162 5.12578 20.2754 5.56738 20.2754H19.4336C19.6456 20.2754 19.849 20.1908 19.999 20.041C20.1491 19.891 20.2334 19.6868 20.2334 19.4746V6.94141C20.2333 6.72933 20.149 6.52594 19.999 6.37598C19.849 6.22605 19.6457 6.1416 19.4336 6.1416H17.5049C17.5461 6.4025 17.5674 6.66914 17.5674 6.94141C17.5674 7.60677 17.4363 8.26614 17.1816 8.88086C16.927 9.49553 16.5535 10.054 16.083 10.5244C15.6125 10.9949 15.0541 11.3684 14.4395 11.623C13.8247 11.8777 13.1654 12.0088 12.5 12.0088C11.8348 12.0087 11.1761 11.8776 10.5615 11.623C9.94689 11.3685 9.38841 10.9948 8.91797 10.5244C8.44754 10.054 8.07396 9.49549 7.81934 8.88086C7.56471 8.26614 7.43359 7.60677 7.43359 6.94141C7.43361 6.66914 7.45539 6.4025 7.49805 6.1416H5.56738ZM12.5 3.47461C11.5807 3.4747 10.6989 3.84018 10.0488 4.49023C9.39878 5.1403 9.03327 6.0221 9.0332 6.94141C9.0332 7.86068 9.39889 8.74248 10.0488 9.39258C10.6989 10.0426 11.5807 10.4081 12.5 10.4082C13.4194 10.4082 14.301 10.0427 14.9512 9.39258C15.6013 8.74245 15.9668 7.86082 15.9668 6.94141C15.9667 6.02208 15.6012 5.1403 14.9512 4.49023C14.3011 3.84029 13.4193 3.47461 12.5 3.47461ZM13.5742 5.05566C13.6816 5.05378 13.7882 5.07309 13.8877 5.11328C13.9873 5.15352 14.0783 5.2131 14.1543 5.28906C14.2303 5.36502 14.2898 5.45606 14.3301 5.55566C14.3703 5.65521 14.3896 5.76181 14.3877 5.86914C14.3858 5.9765 14.363 6.08257 14.3193 6.18066C14.2756 6.27877 14.2124 6.3672 14.1338 6.44043L13.0674 7.50684C12.9942 7.58535 12.9056 7.64866 12.8076 7.69238C12.7096 7.73606 12.6034 7.75978 12.4961 7.76172C12.3887 7.76361 12.2813 7.74336 12.1816 7.70312C12.0822 7.6629 11.9919 7.60319 11.916 7.52734C11.8402 7.45151 11.7805 7.36113 11.7402 7.26172C11.7 7.1621 11.6797 7.05468 11.6816 6.94727C11.6836 6.83995 11.7073 6.73379 11.751 6.63574C11.7947 6.53773 11.858 6.44914 11.9365 6.37598L13.0029 5.30957C13.0762 5.231 13.1646 5.16773 13.2627 5.12402C13.3608 5.08035 13.4669 5.05756 13.5742 5.05566Z" fill="#00B82E"/>
</svg>
