<svg width="17" height="16" viewBox="0 0 17 16" fill="none" xmlns="http://www.w3.org/2000/svg">
<path d="M8.33398 1.25C8.94423 1.24986 9.54349 1.41458 10.0674 1.72754C10.5913 2.0405 11.0205 2.48995 11.3096 3.02734H12.9561C13.3802 3.02742 13.7869 3.19627 14.0869 3.49609C14.387 3.79615 14.5557 4.20358 14.5557 4.62793V12.9834C14.5556 13.4077 14.3869 13.8142 14.0869 14.1143C13.7869 14.4142 13.3803 14.5829 12.9561 14.583H3.71094C3.28673 14.5829 2.88004 14.4142 2.58008 14.1143C2.28014 13.8142 2.11135 13.4076 2.11133 12.9834V4.62793C2.11133 4.20358 2.28002 3.79615 2.58008 3.49609C2.88002 3.19626 3.28683 3.02745 3.71094 3.02734H5.35938C5.64834 2.49031 6.07715 2.04143 6.60059 1.72852C7.12433 1.4155 7.72383 1.25004 8.33398 1.25ZM3.71094 4.09473C3.56963 4.09483 3.43391 4.15105 3.33398 4.25098C3.23413 4.35097 3.17773 4.48661 3.17773 4.62793V12.9834C3.17777 13.2776 3.41674 13.5164 3.71094 13.5166H12.9561C13.0974 13.5165 13.2331 13.4603 13.333 13.3604C13.4329 13.2604 13.4892 13.1248 13.4893 12.9834V4.62793C13.4893 4.48658 13.4329 4.35098 13.333 4.25098C13.2331 4.15102 13.0974 4.0948 12.9561 4.09473H11.6699C11.6974 4.26863 11.7109 4.44645 11.7109 4.62793C11.7109 5.07132 11.6237 5.51026 11.4541 5.91992C11.2844 6.32973 11.0353 6.70295 10.7217 7.0166C10.4081 7.33009 10.0356 7.57836 9.62598 7.74805C9.21631 7.91773 8.7774 8.0058 8.33398 8.00586C7.89041 8.00586 7.45083 7.9178 7.04102 7.74805C6.63136 7.57835 6.25889 7.3301 5.94531 7.0166C5.63166 6.70295 5.38264 6.32973 5.21289 5.91992C5.04327 5.51027 4.95607 5.07131 4.95605 4.62793C4.95605 4.44648 4.96964 4.2686 4.99805 4.09473H3.71094ZM8.33398 2.31641C7.72111 2.31641 7.13262 2.55984 6.69922 2.99316C6.2658 3.42658 6.02246 4.01498 6.02246 4.62793C6.0225 5.24073 6.26596 5.82836 6.69922 6.26172C7.13264 6.69514 7.72104 6.93848 8.33398 6.93848C8.94677 6.93836 9.53446 6.69503 9.96777 6.26172C10.4011 5.82835 10.6445 5.24075 10.6445 4.62793C10.6445 4.01498 10.4012 3.42658 9.96777 2.99316C9.53448 2.55997 8.94668 2.31652 8.33398 2.31641ZM9.0498 3.37012C9.12127 3.36891 9.19251 3.38241 9.25879 3.40918C9.32501 3.43598 9.38501 3.47587 9.43555 3.52637C9.48619 3.57701 9.52689 3.63769 9.55371 3.7041C9.58039 3.77035 9.59306 3.84167 9.5918 3.91309C9.5905 3.9845 9.57494 4.05486 9.5459 4.12012C9.51676 4.18551 9.47522 4.24513 9.42285 4.29395L8.71094 5.00488C8.66218 5.05713 8.60336 5.09883 8.53809 5.12793C8.47266 5.15708 8.40169 5.17354 8.33008 5.1748C8.25861 5.17601 8.18738 5.16251 8.12109 5.13574C8.0549 5.10898 7.99487 5.06899 7.94434 5.01855C7.89369 4.96791 7.853 4.90723 7.82617 4.84082C7.79941 4.7745 7.78684 4.70334 7.78809 4.63184C7.78935 4.56023 7.80483 4.48925 7.83398 4.42383C7.86308 4.3586 7.90482 4.2997 7.95703 4.25098L8.66895 3.54004C8.71777 3.48766 8.77639 3.44516 8.8418 3.41602C8.90718 3.3869 8.97824 3.37138 9.0498 3.37012Z" fill="#008EB1"/>
</svg>
