<svg preserveAspectRatio="none" width="100%" height="100%" overflow="visible" style="display: block;" viewBox="0 0 36.8 36.9241" fill="none" xmlns="http://www.w3.org/2000/svg">
<g id="Group">
<path id="Vector" d="M5.4 24.4C5.4 24.1348 5.50536 23.8804 5.69289 23.6929C5.88043 23.5054 6.13478 23.4 6.4 23.4H20.4C20.6652 23.4 20.9196 23.5054 21.1071 23.6929C21.2946 23.8804 21.4 24.1348 21.4 24.4C21.4 24.6652 21.2946 24.9196 21.1071 25.1071C20.9196 25.2946 20.6652 25.4 20.4 25.4H6.4C6.13478 25.4 5.88043 25.2946 5.69289 25.1071C5.50536 24.9196 5.4 24.6652 5.4 24.4ZM6.4 28.4C6.13478 28.4 5.88043 28.5054 5.69289 28.6929C5.50536 28.8804 5.4 29.1348 5.4 29.4C5.4 29.6652 5.50536 29.9196 5.69289 30.1071C5.88043 30.2946 6.13478 30.4 6.4 30.4H20.4C20.6652 30.4 20.9196 30.2946 21.1071 30.1071C21.2946 29.9196 21.4 29.6652 21.4 29.4C21.4 29.1348 21.2946 28.8804 21.1071 28.6929C20.9196 28.5054 20.6652 28.4 20.4 28.4H6.4ZM6.9 15.4C7.72843 15.4 8.4 14.7284 8.4 13.9V13.4C8.4 12.8477 8.84772 12.4 9.4 12.4C9.95228 12.4 10.4 12.8477 10.4 13.4V13.9C10.4 14.7284 11.0716 15.4 11.9 15.4H12.4C12.9523 15.4 13.4 15.8477 13.4 16.4C13.4 16.9523 12.9523 17.4 12.4 17.4H11.9C11.0716 17.4 10.4 18.0716 10.4 18.9V19.4C10.4 19.9523 9.95228 20.4 9.4 20.4C8.84772 20.4 8.4 19.9523 8.4 19.4V18.9C8.4 18.0716 7.72843 17.4 6.9 17.4H6.4C5.84772 17.4 5.4 16.9523 5.4 16.4C5.4 15.8477 5.84772 15.4 6.4 15.4H6.9Z" fill="var(--fill-0, #004172)" stroke="var(--stroke-0, #004172)" stroke-width="0.8"/>
<path id="Vector_2" fill-rule="evenodd" clip-rule="evenodd" d="M9.4 0.4C8.60435 0.4 7.84129 0.716071 7.27868 1.27868C6.71607 1.84129 6.4 2.60435 6.4 3.4H3.4C2.60435 3.4 1.84129 3.71607 1.27868 4.27868C0.716071 4.84129 0.4 5.60435 0.4 6.4V33.4C0.4 34.1956 0.716071 34.9587 1.27868 35.5213C1.84129 36.0839 2.60435 36.4 3.4 36.4H23.4C24.1956 36.4 24.9587 36.0839 25.5213 35.5213C26.0839 34.9587 26.4 34.1956 26.4 33.4V6.4C26.4 5.60435 26.0839 4.84129 25.5213 4.27868C24.9587 3.71607 24.1956 3.4 23.4 3.4H20.4C20.4 2.60435 20.0839 1.84129 19.5213 1.27868C18.9587 0.716071 18.1956 0.4 17.4 0.4H9.4ZM17.4 6.4C17.6652 6.4 17.9196 6.29464 18.1071 6.10711C18.2946 5.91957 18.4 5.66522 18.4 5.4V3.4C18.4 3.13478 18.2946 2.88043 18.1071 2.69289C17.9196 2.50536 17.6652 2.4 17.4 2.4H9.4C9.13478 2.4 8.88043 2.50536 8.69289 2.69289C8.50536 2.88043 8.4 3.13478 8.4 3.4V5.4C8.4 5.66522 8.50536 5.91957 8.69289 6.10711C8.88043 6.29464 9.13478 6.4 9.4 6.4H17.4ZM6.4 5.4C6.4 6.19565 6.71607 6.95871 7.27868 7.52132C7.84129 8.08393 8.60435 8.4 9.4 8.4H17.4C18.1956 8.4 18.9587 8.08393 19.5213 7.52132C20.0839 6.95871 20.4 6.19565 20.4 5.4H23.4C23.6652 5.4 23.9196 5.50536 24.1071 5.69289C24.2946 5.88043 24.4 6.13478 24.4 6.4V33.4C24.4 33.6652 24.2946 33.9196 24.1071 34.1071C23.9196 34.2946 23.6652 34.4 23.4 34.4H3.4C3.13478 34.4 2.88043 34.2946 2.69289 34.1071C2.50536 33.9196 2.4 33.6652 2.4 33.4V6.4C2.4 6.13478 2.50536 5.88043 2.69289 5.69289C2.88043 5.50536 3.13478 5.4 3.4 5.4H6.4ZM30.4 11.4C30.4 10.6044 30.7161 9.84129 31.2787 9.27868C31.8413 8.71607 32.6044 8.4 33.4 8.4C34.1956 8.4 34.9587 8.71607 35.5213 9.27868C36.0839 9.84129 36.4 10.6044 36.4 11.4V31.703L33.4 36.203L30.4 31.703V11.4ZM33.4 10.4C33.1348 10.4 32.8804 10.5054 32.6929 10.6929C32.5054 10.8804 32.4 11.1348 32.4 11.4V13.4H34.4V11.4C34.4 11.1348 34.2946 10.8804 34.1071 10.6929C33.9196 10.5054 33.6652 10.4 33.4 10.4ZM33.4 32.597L34.4 31.097V15.4H32.4V31.097L33.4 32.597Z" fill="var(--fill-0, #004172)" stroke="var(--stroke-0, #004172)" stroke-width="0.8"/>
</g>
</svg>
