<svg preserveAspectRatio="none" width="100%" height="100%" overflow="visible" style="display: block;" viewBox="0 0 35.636 39.236" fill="none" xmlns="http://www.w3.org/2000/svg">
<g id="Group">
<path id="Vector" d="M1.618 16.7686C1.618 11.0122 1.618 8.134 2.2984 7.1656C2.977 6.199 5.6824 5.272 11.095 3.4198L12.1264 3.067C14.947 2.1004 16.3564 1.618 17.818 1.618C19.2796 1.618 20.689 2.1004 23.5096 3.067L24.541 3.4198C29.9536 5.272 32.659 6.199 33.3376 7.1656C34.018 8.134 34.018 11.014 34.018 16.7686V19.6018C34.018 29.7502 26.3878 34.6768 21.5998 36.7666C20.302 37.3336 19.654 37.618 17.818 37.618C15.982 37.618 15.334 37.3336 14.0362 36.7666C9.2482 34.675 1.618 29.752 1.618 19.6018V16.7686Z" stroke="var(--stroke-0, #004172)" stroke-width="3.236"/>
<path id="Vector_2" d="M10.818 18.618L15.8902 23.218L24.818 13.618" stroke="var(--stroke-0, #004172)" stroke-width="4" stroke-linecap="round" stroke-linejoin="round"/>
</g>
</svg>
