<svg preserveAspectRatio="none" width="100%" height="100%" overflow="visible" style="display: block;" viewBox="0 0 31.9219 40.6348" fill="none" xmlns="http://www.w3.org/2000/svg">
<path id="Union" d="M13.1406 0C13.5631 0 13.9802 0.0927502 14.3613 0.271484L14.5225 0.353516L14.6777 0.445312C15.0308 0.668774 15.3319 0.966694 15.5586 1.31934L16.1836 2.29785C17.7695 4.8107 20.1922 8.87747 22.2617 13.3145C22.6352 14.1153 22.2881 15.0679 21.4873 15.4414C20.6866 15.8144 19.7347 15.4676 19.3613 14.667C17.217 10.0696 14.662 5.85714 13.1406 3.47852C11.6863 5.75237 9.28666 9.70485 7.2041 14.0674C4.95781 18.773 3.19922 23.7148 3.19922 27.4941C3.19935 30.1305 4.24712 32.6592 6.11133 34.5234C7.97555 36.3877 10.5042 37.4354 13.1406 37.4355C15.7772 37.4355 18.3065 36.3877 20.1709 34.5234C20.7957 33.8987 21.8088 33.8987 22.4336 34.5234C23.0583 35.1483 23.0583 36.1613 22.4336 36.7861C19.9691 39.2505 16.6259 40.6348 13.1406 40.6348C9.65554 40.6346 6.31297 39.2505 3.84863 36.7861C1.38431 34.3218 0.000127327 30.9792 0 27.4941C0 22.9468 2.04457 17.4475 4.31641 12.6885C6.61682 7.86958 9.27383 3.56075 10.7236 1.31934C10.9829 0.916053 11.3393 0.584043 11.7598 0.353516L11.9209 0.271484C12.3019 0.0928373 12.7184 9.20393e-05 13.1406 0ZM6.73047 25.8936C7.61382 25.8943 8.32941 26.6109 8.3291 27.4941C8.3286 28.1262 8.4529 28.7528 8.69434 29.3369C8.93588 29.921 9.29056 30.4522 9.7373 30.8994C10.1841 31.3466 10.7149 31.7013 11.2988 31.9434C11.8829 32.1854 12.5094 32.3105 13.1416 32.3105C14.0249 32.3107 14.741 33.0268 14.7412 33.9102C14.7412 34.7937 14.0251 35.5096 13.1416 35.5098C12.089 35.5098 11.0466 35.3024 10.0742 34.8994C9.10177 34.4964 8.21768 33.9058 7.47363 33.1611C6.72974 32.4166 6.1395 31.5322 5.7373 30.5596C5.33526 29.5871 5.12908 28.5445 5.12988 27.4922C5.13082 26.6088 5.8471 25.893 6.73047 25.8936ZM23.8281 15.7275C24.0712 15.7276 24.317 15.7954 24.5254 15.9414L31.2656 19.7285L31.2646 19.7295C31.66 19.9432 31.9217 20.356 31.9219 20.8301V28.5244C31.9218 28.9984 31.6597 29.4101 31.2646 29.624L31.2656 29.625L24.5215 33.4141C24.3137 33.5585 24.07 33.6259 23.8281 33.626C23.5859 33.626 23.3418 33.5589 23.1338 33.4141L16.3906 29.625V29.624C16.1935 29.5181 16.0276 29.3617 15.9121 29.1699C15.7947 28.9747 15.7326 28.7503 15.7334 28.5225V20.8301C15.7336 20.3562 15.9957 19.9433 16.3906 19.7295V19.7285L23.1299 15.9414C23.3385 15.7952 23.5848 15.7275 23.8281 15.7275ZM18.2432 27.7852L22.5732 30.2236V25.4062L18.2432 22.9746V27.7852ZM25.083 25.4062V30.2236L29.4121 27.7852V22.9756L25.083 25.4062ZM19.5488 20.8301L23.8281 23.2354L28.1064 20.8301L23.8281 18.4238L19.5488 20.8301Z" fill="var(--fill-0, #004172)"/>
</svg>
