<svg preserveAspectRatio="none" width="100%" height="100%" overflow="visible" style="display: block;" viewBox="0 0 35.8398 40" fill="none" xmlns="http://www.w3.org/2000/svg">
<path id="Union" d="M17.9199 5.34267e-07C19.6777 -0.000593737 21.4031 0.494583 22.9121 1.43359C24.4212 2.37262 25.6575 3.72046 26.4902 5.33301H31.2314C32.4536 5.33301 33.6261 5.83908 34.4902 6.73926C35.3543 7.63942 35.8398 8.86083 35.8398 10.1338V35.2002C35.8398 36.473 35.3542 37.6937 34.4902 38.5938C33.6261 39.4939 32.4536 40 31.2314 40H4.60742C3.38537 40 2.21374 39.4939 1.34961 38.5938C0.485491 37.6936 4.8691e-05 36.4732 0 35.2002V10.1338C0 8.86075 0.485442 7.63943 1.34961 6.73926C2.21372 5.83923 3.38544 5.33306 4.60742 5.33301H9.35254C10.1849 3.72105 11.4214 2.37457 12.9297 1.43555C14.4381 0.496494 16.1627 0.000116195 17.9199 5.34267e-07ZM4.60742 8.5332C4.20012 8.53325 3.8095 8.70194 3.52148 9.00195C3.23343 9.30201 3.07129 9.70944 3.07129 10.1338V35.2002C3.07139 36.0832 3.75969 36.7997 4.60742 36.7998H31.2314C31.6388 36.7998 32.0293 36.6311 32.3174 36.3311C32.6054 36.031 32.7675 35.6245 32.7676 35.2002V10.1338C32.7676 9.70944 32.6054 9.30201 32.3174 9.00195C32.0293 8.702 31.6387 8.5332 31.2314 8.5332H27.5293C27.6085 9.05516 27.6475 9.58908 27.6475 10.1338C27.6474 11.4642 27.3959 12.7816 26.9072 14.0107C26.4183 15.2402 25.7012 16.3579 24.7979 17.2988C23.8947 18.2396 22.8226 18.9859 21.6426 19.4951C20.4624 20.0043 19.1973 20.2666 17.9199 20.2666C16.6425 20.2666 15.3774 20.0043 14.1973 19.4951C13.0171 18.9859 11.9443 18.2397 11.041 17.2988C10.1377 16.3579 9.42052 15.2402 8.93164 14.0107C8.44296 12.7816 8.19146 11.4642 8.19141 10.1338C8.19141 9.58908 8.23253 9.05516 8.31445 8.5332H4.60742ZM17.9199 3.2002C16.1547 3.2002 14.4611 3.93024 13.2129 5.23047C11.9646 6.53072 11.2637 8.29496 11.2637 10.1338C11.2638 11.9725 11.9648 13.736 13.2129 15.0361C14.4611 16.3364 16.1546 17.0664 17.9199 17.0664C19.685 17.0663 21.3778 16.3362 22.626 15.0361C23.8741 13.736 24.5751 11.9725 24.5752 10.1338C24.5752 8.29496 23.8742 6.53072 22.626 5.23047C21.3778 3.93042 19.685 3.20029 17.9199 3.2002ZM19.9814 6.36035C20.1876 6.35659 20.3928 6.39612 20.584 6.47656C20.7751 6.55703 20.9489 6.67725 21.0947 6.8291C21.2405 6.98098 21.3554 7.16223 21.4326 7.36133C21.5098 7.56042 21.5476 7.77361 21.5439 7.98828C21.5403 8.20311 21.4951 8.41506 21.4111 8.61133C21.3272 8.80755 21.2065 8.9844 21.0557 9.13086L19.0078 11.2637C18.8672 11.4209 18.6972 11.5473 18.5088 11.6348C18.3205 11.7222 18.1173 11.7696 17.9111 11.7734C17.705 11.7772 17.4998 11.7376 17.3086 11.6572C17.1174 11.5768 16.9437 11.4566 16.7979 11.3047C16.652 11.1528 16.5372 10.9717 16.46 10.7725C16.3828 10.5734 16.3441 10.3602 16.3477 10.1455C16.3513 9.93081 16.3966 9.71863 16.4805 9.52246C16.5644 9.3262 16.686 9.14941 16.8369 9.00293L18.8848 6.86914C19.0252 6.71218 19.1947 6.58642 19.3828 6.49902C19.5712 6.41157 19.7752 6.36414 19.9814 6.36035Z" fill="var(--fill-0, #004172)"/>
</svg>
