<svg preserveAspectRatio="none" width="100%" height="100%" overflow="visible" style="display: block;" viewBox="0 0 15.8 17.3556" fill="none" xmlns="http://www.w3.org/2000/svg">
<path id="Icon" d="M0.9 4.01111H2.45556M2.45556 4.01111H14.9M2.45556 4.01111V14.9C2.45556 15.3126 2.61944 15.7082 2.91117 15.9999C3.20289 16.2917 3.59855 16.4556 4.01111 16.4556H11.7889C12.2014 16.4556 12.5971 16.2917 12.8888 15.9999C13.1806 15.7082 13.3444 15.3126 13.3444 14.9V4.01111M4.78889 4.01111V2.45556C4.78889 2.043 4.95278 1.64733 5.2445 1.35561C5.53622 1.06389 5.93189 0.9 6.34444 0.9H9.45556C9.86811 0.9 10.2638 1.06389 10.5555 1.35561C10.8472 1.64733 11.0111 2.043 11.0111 2.45556V4.01111M6.34444 7.9V12.5667M9.45556 7.9V12.5667" stroke="var(--stroke-0, #808080)" stroke-width="1.8" stroke-linecap="round" stroke-linejoin="round"/>
</svg>
