<svg width="24" height="24" viewBox="0 0 24 24" fill="none" xmlns="http://www.w3.org/2000/svg">
<path d="M12.0002 7.5V11.1M13.8002 20.1V17.4C13.8002 16.9226 13.6106 16.4648 13.273 16.1272C12.9354 15.7896 12.4776 15.6 12.0002 15.6C11.5228 15.6 11.065 15.7896 10.7274 16.1272C10.3898 16.4648 10.2002 16.9226 10.2002 17.4V20.1M13.8002 9.3H10.2002" stroke="white" stroke-width="1.8" stroke-linecap="round" stroke-linejoin="round"/>
<path d="M17.4 11.0999H19.2C19.6774 11.0999 20.1352 11.2895 20.4728 11.6271C20.8104 11.9647 21 12.4225 21 12.8999V18.2999C21 18.7773 20.8104 19.2351 20.4728 19.5727C20.1352 19.9103 19.6774 20.0999 19.2 20.0999H4.8C4.32261 20.0999 3.86477 19.9103 3.52721 19.5727C3.18964 19.2351 3 18.7773 3 18.2999V10.1999C3 9.72251 3.18964 9.26468 3.52721 8.92711C3.86477 8.58955 4.32261 8.3999 4.8 8.3999H6.6" stroke="white" stroke-width="1.8" stroke-linecap="round" stroke-linejoin="round"/>
<path d="M17.3996 20.0999V5.6999C17.3996 5.22251 17.21 4.76468 16.8724 4.42711C16.5348 4.08954 16.077 3.8999 15.5996 3.8999H8.39961C7.92222 3.8999 7.46438 4.08954 7.12682 4.42711C6.78925 4.76468 6.59961 5.22251 6.59961 5.6999V20.0999" stroke="white" stroke-width="1.8" stroke-linecap="round" stroke-linejoin="round"/>
</svg>
