<svg width="46" height="46" viewBox="0 0 46 46" fill="none" xmlns="http://www.w3.org/2000/svg">
<g filter="url(#filter0_di_2205_8441)">
<path d="M17 28H17.8C18.3523 28 18.8 27.5523 18.8 27V19.2C18.8 18.6477 18.3523 18.2 17.8 18.2H17C16.4477 18.2 16 18.6477 16 19.2V27C16 27.5523 16.4477 28 17 28Z" fill="white"/>
<path d="M22.6 28H23.4C23.9523 28 24.4 27.5523 24.4 27V15C24.4 14.4477 23.9523 14 23.4 14H22.6C22.0477 14 21.6 14.4477 21.6 15V27C21.6 27.5523 22.0477 28 22.6 28Z" fill="white"/>
<path d="M28.2 28H29C29.5523 28 30 27.5523 30 27V23.4C30 22.8477 29.5523 22.4 29 22.4H28.2C27.6477 22.4 27.2 22.8477 27.2 23.4V27C27.2 27.5523 27.6477 28 28.2 28Z" fill="white"/>
</g>
<defs>
<filter id="filter0_di_2205_8441" x="-5" y="-5" width="56" height="56" filterUnits="userSpaceOnUse" color-interpolation-filters="sRGB">
<feFlood flood-opacity="0" result="BackgroundImageFix"/>
<feColorMatrix in="SourceAlpha" type="matrix" values="0 0 0 0 0 0 0 0 0 0 0 0 0 0 0 0 0 0 127 0" result="hardAlpha"/>
<feOffset dy="2"/>
<feGaussianBlur stdDeviation="8"/>
<feColorMatrix type="matrix" values="0 0 0 0 0 0 0 0 0 0.254902 0 0 0 0 0.447059 0 0 0 0.08 0"/>
<feBlend mode="normal" in2="BackgroundImageFix" result="effect1_dropShadow_2205_8441"/>
<feBlend mode="normal" in="SourceGraphic" in2="effect1_dropShadow_2205_8441" result="shape"/>
<feColorMatrix in="SourceAlpha" type="matrix" values="0 0 0 0 0 0 0 0 0 0 0 0 0 0 0 0 0 0 127 0" result="hardAlpha"/>
<feOffset/>
<feGaussianBlur stdDeviation="1"/>
<feComposite in2="hardAlpha" operator="arithmetic" k2="-1" k3="1"/>
<feColorMatrix type="matrix" values="0 0 0 0 0 0 0 0 0 0.254902 0 0 0 0 0.447059 0 0 0 0.16 0"/>
<feBlend mode="normal" in2="shape" result="effect2_innerShadow_2205_8441"/>
</filter>
</defs>
</svg>
