<svg width="24" height="24" viewBox="0 0 24 24" fill="none" xmlns="http://www.w3.org/2000/svg">
<path d="M5.5 15C5.5 14.8674 5.55268 14.7402 5.64645 14.6464C5.74021 14.5527 5.86739 14.5 6 14.5H13C13.1326 14.5 13.2598 14.5527 13.3536 14.6464C13.4473 14.7402 13.5 14.8674 13.5 15C13.5 15.1326 13.4473 15.2598 13.3536 15.3536C13.2598 15.4473 13.1326 15.5 13 15.5H6C5.86739 15.5 5.74021 15.4473 5.64645 15.3536C5.55268 15.2598 5.5 15.1326 5.5 15ZM6 17C5.86739 17 5.74021 17.0527 5.64645 17.1464C5.55268 17.2402 5.5 17.3674 5.5 17.5C5.5 17.6326 5.55268 17.7598 5.64645 17.8536C5.74021 17.9473 5.86739 18 6 18H13C13.1326 18 13.2598 17.9473 13.3536 17.8536C13.4473 17.7598 13.5 17.6326 13.5 17.5C13.5 17.3674 13.4473 17.2402 13.3536 17.1464C13.2598 17.0527 13.1326 17 13 17H6ZM6.25 10.5C6.66421 10.5 7 10.1642 7 9.75V9.5C7 9.22386 7.22386 9 7.5 9C7.77614 9 8 9.22386 8 9.5V9.75C8 10.1642 8.33579 10.5 8.75 10.5H9C9.27614 10.5 9.5 10.7239 9.5 11C9.5 11.2761 9.27614 11.5 9 11.5H8.75C8.33579 11.5 8 11.8358 8 12.25V12.5C8 12.7761 7.77614 13 7.5 13C7.22386 13 7 12.7761 7 12.5V12.25C7 11.8358 6.66421 11.5 6.25 11.5H6C5.72386 11.5 5.5 11.2761 5.5 11C5.5 10.7239 5.72386 10.5 6 10.5H6.25Z" fill="white" stroke="white" stroke-width="0.4"/>
<path fill-rule="evenodd" clip-rule="evenodd" d="M7.5 3C7.10218 3 6.72064 3.15804 6.43934 3.43934C6.15804 3.72064 6 4.10218 6 4.5H4.5C4.10218 4.5 3.72064 4.65804 3.43934 4.93934C3.15804 5.22064 3 5.60218 3 6V19.5C3 19.8978 3.15804 20.2794 3.43934 20.5607C3.72064 20.842 4.10218 21 4.5 21H14.5C14.8978 21 15.2794 20.842 15.5607 20.5607C15.842 20.2794 16 19.8978 16 19.5V6C16 5.60218 15.842 5.22064 15.5607 4.93934C15.2794 4.65804 14.8978 4.5 14.5 4.5H13C13 4.10218 12.842 3.72064 12.5607 3.43934C12.2794 3.15804 11.8978 3 11.5 3H7.5ZM11.5 6C11.6326 6 11.7598 5.94732 11.8536 5.85355C11.9473 5.75979 12 5.63261 12 5.5V4.5C12 4.36739 11.9473 4.24021 11.8536 4.14645C11.7598 4.05268 11.6326 4 11.5 4H7.5C7.36739 4 7.24021 4.05268 7.14645 4.14645C7.05268 4.24021 7 4.36739 7 4.5V5.5C7 5.63261 7.05268 5.75979 7.14645 5.85355C7.24021 5.94732 7.36739 6 7.5 6H11.5ZM6 5.5C6 5.89782 6.15804 6.27936 6.43934 6.56066C6.72064 6.84196 7.10218 7 7.5 7H11.5C11.8978 7 12.2794 6.84196 12.5607 6.56066C12.842 6.27936 13 5.89782 13 5.5H14.5C14.6326 5.5 14.7598 5.55268 14.8536 5.64645C14.9473 5.74021 15 5.86739 15 6V19.5C15 19.6326 14.9473 19.7598 14.8536 19.8536C14.7598 19.9473 14.6326 20 14.5 20H4.5C4.36739 20 4.24021 19.9473 4.14645 19.8536C4.05268 19.7598 4 19.6326 4 19.5V6C4 5.86739 4.05268 5.74021 4.14645 5.64645C4.24021 5.55268 4.36739 5.5 4.5 5.5H6ZM18 8.5C18 8.10218 18.158 7.72064 18.4393 7.43934C18.7206 7.15804 19.1022 7 19.5 7C19.8978 7 20.2794 7.15804 20.5607 7.43934C20.842 7.72064 21 8.10218 21 8.5V18.6515L19.5 20.9015L18 18.6515V8.5ZM19.5 8C19.3674 8 19.2402 8.05268 19.1464 8.14645C19.0527 8.24021 19 8.36739 19 8.5V9.5H20V8.5C20 8.36739 19.9473 8.24021 19.8536 8.14645C19.7598 8.05268 19.6326 8 19.5 8ZM19.5 19.0985L20 18.3485V10.5H19V18.3485L19.5 19.0985Z" fill="white" stroke="white" stroke-width="0.4"/>
</svg>
