<svg width="24" height="24" viewBox="0 0 24 24" fill="none" xmlns="http://www.w3.org/2000/svg">
<path d="M8.86956 10.8478C7.94707 10.8478 7.06236 10.4814 6.41006 9.82906C5.75776 9.17676 5.3913 8.29206 5.3913 7.36956V4.58696C5.3913 4.40246 5.4646 4.22552 5.59506 4.09506C5.72552 3.9646 5.90246 3.8913 6.08696 3.8913H6.78261C6.96711 3.8913 7.14405 3.81801 7.27451 3.68755C7.40497 3.55709 7.47826 3.38015 7.47826 3.19565C7.47826 3.01115 7.40497 2.83421 7.27451 2.70375C7.14405 2.57329 6.96711 2.5 6.78261 2.5H6.08696C5.53346 2.5 5.00264 2.71988 4.61126 3.11126C4.21988 3.50264 4 4.03346 4 4.58696V7.36956C4.00089 8.15547 4.19254 8.92941 4.55847 9.62492C4.9244 10.3204 5.45369 10.9167 6.10087 11.3626C6.72329 11.9103 7.22798 12.5787 7.58433 13.3272C7.94067 14.0758 8.14126 14.889 8.17391 15.7174C8.17391 17.0089 8.68695 18.2475 9.60017 19.1607C10.5134 20.0739 11.752 20.5869 13.0435 20.5869C14.335 20.5869 15.5736 20.0739 16.4868 19.1607C17.4 18.2475 17.913 17.0089 17.913 15.7174V14.9243C18.5688 14.755 19.1403 14.3524 19.5204 13.7918C19.9005 13.2313 20.0632 12.5513 19.9778 11.8795C19.8925 11.2076 19.565 10.5899 19.0569 10.1422C18.5487 9.69449 17.8947 9.44749 17.2174 9.44749C16.5401 9.44749 15.8861 9.69449 15.3779 10.1422C14.8697 10.5899 14.5423 11.2076 14.457 11.8795C14.3716 12.5513 14.5342 13.2313 14.9144 13.7918C15.2945 14.3524 15.866 14.755 16.5217 14.9243V15.7174C16.5217 16.6399 16.1553 17.5246 15.503 18.1769C14.8507 18.8292 13.966 19.1956 13.0435 19.1956C12.121 19.1956 11.2363 18.8292 10.584 18.1769C9.93167 17.5246 9.56522 16.6399 9.56522 15.7174C9.59963 14.8879 9.80238 14.0742 10.1612 13.3255C10.5199 12.5769 11.0272 11.909 11.6522 11.3626C12.2968 10.9152 12.8234 10.3182 13.1868 9.62279C13.5503 8.92738 13.7398 8.15423 13.7391 7.36956V4.58696C13.7391 4.03346 13.5193 3.50264 13.1279 3.11126C12.7365 2.71988 12.2057 2.5 11.6522 2.5H10.9565C10.772 2.5 10.5951 2.57329 10.4646 2.70375C10.3342 2.83421 10.2609 3.01115 10.2609 3.19565C10.2609 3.38015 10.3342 3.55709 10.4646 3.68755C10.5951 3.81801 10.772 3.8913 10.9565 3.8913H11.6522C11.8367 3.8913 12.0136 3.9646 12.1441 4.09506C12.2745 4.22552 12.3478 4.40246 12.3478 4.58696V7.36956C12.3478 7.82633 12.2579 8.27863 12.0831 8.70064C11.9083 9.12264 11.6521 9.50608 11.3291 9.82906C11.0061 10.1521 10.6226 10.4083 10.2006 10.5831C9.77863 10.7579 9.32633 10.8478 8.86956 10.8478ZM17.2174 13.6304C16.8484 13.6304 16.4945 13.4838 16.2336 13.2229C15.9727 12.962 15.8261 12.6081 15.8261 12.2391C15.8261 11.8701 15.9727 11.5162 16.2336 11.2553C16.4945 10.9944 16.8484 10.8478 17.2174 10.8478C17.5864 10.8478 17.9403 10.9944 18.2012 11.2553C18.4621 11.5162 18.6087 11.8701 18.6087 12.2391C18.6087 12.6081 18.4621 12.962 18.2012 13.2229C17.9403 13.4838 17.5864 13.6304 17.2174 13.6304Z" fill="white"/>
</svg>
