<svg width="55" height="21" viewBox="0 0 55 21" fill="none" xmlns="http://www.w3.org/2000/svg">
<g filter="url(#filter0_d_2205_9755)">
<path d="M5.52734 8.64367C6.55046 8.68094 7.57357 8.71634 8.59668 8.74989C9.30105 8.77298 10.0054 8.79519 10.7098 8.81651L10.7945 8.81907L10.8514 8.74279C11.6924 7.61554 12.5306 6.48627 13.3658 5.35499L12.8724 5.32516C13.7501 7.07592 14.6338 8.82348 15.5235 10.5678L15.8136 11.1349L16.2221 10.6277C17.0473 9.606 17.87 8.58238 18.6903 7.55687L18.0526 7.66732C19.3084 8.49074 20.5664 9.31077 21.8266 10.1274L22.2177 10.3809L22.5215 10.0159C23.5685 8.75763 24.6118 7.49636 25.6514 6.23208L24.8272 6.27319C25.3129 6.76127 25.7992 7.24876 26.2861 7.73565C26.6053 8.05492 26.9249 8.37393 27.2446 8.69269L27.6841 9.13354L28.0748 8.64671C29.454 6.917 30.8264 5.18186 32.192 3.44126L31.2972 3.2987C32.0056 5.1348 32.7206 6.96847 33.4419 8.79973L33.6163 9.28908L34.082 9.02758C35.4507 8.19863 36.8171 7.36574 38.1812 6.52892L37.7554 6.47383C38.8149 7.48733 39.8771 8.49812 40.942 9.5062L41.0065 9.57432L41.1135 9.57725C42.6241 9.53586 44.1346 9.4904 45.6451 9.44088C46.6682 9.40734 47.6913 9.37193 48.7145 9.33467C47.6913 9.2974 46.6682 9.26199 45.6451 9.22845C44.1346 9.17893 42.6241 9.13348 41.1135 9.09208L41.2851 9.16313C40.277 8.09824 39.2662 7.03604 38.2527 5.97656L38.0512 5.78384L37.8269 5.92147C36.427 6.69697 35.0294 7.4764 33.6341 8.25977L34.2742 8.48762C33.6136 6.63357 32.9466 4.78195 32.2731 2.93275L31.9425 2.0728L31.3782 2.79018C29.9798 4.50456 28.5882 6.22438 27.2035 7.94964L28.0337 7.90366C27.7149 7.58388 27.3959 7.26436 27.0766 6.94509C26.5897 6.4582 26.1022 5.9719 25.6142 5.48621L25.1773 5.05151L24.79 5.52731C23.7566 6.79668 22.7269 8.06906 21.7009 9.34446L22.3958 9.23291C21.1223 8.43724 19.8467 7.64495 18.5689 6.85605L18.1911 6.62282L17.9312 6.9665C17.1392 8.01398 16.3496 9.06334 15.5624 10.1146L16.261 10.1745C15.3081 8.46387 14.3491 6.75645 13.3841 5.05225L13.149 4.63479L12.8907 5.02242C12.1137 6.19445 11.3395 7.36849 10.5682 8.54456L10.7098 8.47084C10.0054 8.49216 9.30105 8.51437 8.59668 8.53746C7.57357 8.571 6.55046 8.60641 5.52734 8.64367Z" fill="#00B82E"/>
</g>
<defs>
<filter id="filter0_d_2205_9755" x="-0.00060606" y="-0.000226974" width="54.2434" height="20.1179" filterUnits="userSpaceOnUse" color-interpolation-filters="sRGB">
<feFlood flood-opacity="0" result="BackgroundImageFix"/>
<feColorMatrix in="SourceAlpha" type="matrix" values="0 0 0 0 0 0 0 0 0 0 0 0 0 0 0 0 0 0 127 0" result="hardAlpha"/>
<feOffset dy="3.45497"/>
<feGaussianBlur stdDeviation="2.76397"/>
<feColorMatrix type="matrix" values="0 0 0 0 0.401779 0 0 0 0 1 0 0 0 0 0.0299114 0 0 0 1 0"/>
<feBlend mode="normal" in2="BackgroundImageFix" result="effect1_dropShadow_2205_9755"/>
<feBlend mode="normal" in="SourceGraphic" in2="effect1_dropShadow_2205_9755" result="shape"/>
</filter>
</defs>
</svg>
