<svg width="13" height="11" viewBox="0 0 13 11" fill="none" xmlns="http://www.w3.org/2000/svg">
<path d="M3.40278 1.4939C3.43819 1.49638 3.47344 1.50078 3.50837 1.50707C3.88243 1.57173 4.25761 1.64687 4.63162 1.71764C4.81972 1.75325 5.15389 1.78475 5.29907 1.90035C5.51826 2.07491 5.43106 2.32331 5.38974 2.55532C5.78156 2.36391 6.1457 2.43828 6.45032 2.75619C6.67624 2.99197 6.8778 3.25569 7.10136 3.49344C7.30498 3.491 7.55814 3.50073 7.75621 3.48757C7.81687 3.38956 7.88531 3.30508 7.98394 3.24269C8.04992 3.20096 8.11565 3.17935 8.1925 3.16826C8.35385 3.14497 9.29679 3.14065 9.438 3.17158C9.46585 3.25794 9.46193 3.34986 9.4623 3.43951C9.46275 3.54739 9.48304 4.28771 9.43527 4.32733C9.37395 4.37813 9.22073 4.35733 9.14548 4.35077C9.34947 4.82167 9.57976 5.28594 9.78885 5.75517C9.82288 5.83151 9.86219 5.9055 9.88966 5.98458C10.6666 5.99172 11.1441 6.60361 11.1901 7.33455C11.2007 7.5016 11.057 7.47829 10.9403 7.47614C11.2112 8.26205 10.6437 9.04517 9.80723 9.02992C9.50661 9.02738 9.22 8.90253 9.0134 8.68411C8.77377 8.43465 8.68304 8.14564 8.68987 7.80431C8.69426 7.77024 8.70205 7.75865 8.68859 7.73286C8.61501 7.75345 8.39024 8.08608 8.27112 8.09863C8.18551 8.10765 8.103 8.1094 8.01696 8.108C7.45197 8.0988 6.87829 8.12185 6.31398 8.10507C6.20476 8.03787 5.87019 7.66543 5.77595 7.55049C5.83722 7.78253 5.83247 8.04823 5.74943 8.27468C5.64351 8.56429 5.4262 8.79954 5.14586 8.92804C4.87405 9.05347 4.52392 9.06488 4.24362 8.96065C3.65847 8.74306 3.35066 8.06273 3.57185 7.47965C3.40732 7.45898 3.06066 7.50655 2.97274 7.44751C2.94796 7.41639 2.94152 7.37163 2.94316 7.3325C2.97778 6.50433 3.49205 5.68854 4.3634 5.57535C4.53681 5.55282 4.72995 5.55896 4.9067 5.55693C4.75364 5.40932 4.68857 5.22617 4.67041 5.01905C4.11457 4.95389 3.54992 4.81739 2.99257 4.74816C2.79083 4.7231 2.63456 4.66208 2.67143 4.4229C2.69259 4.28567 2.72211 4.14753 2.74725 4.0104L2.92345 3.06767L3.08754 2.18688C3.11713 2.02802 3.14523 1.86899 3.17867 1.71089C3.2078 1.57317 3.26451 1.51769 3.40278 1.4939ZM8.0119 3.4958C8.2743 3.593 8.42745 3.80281 8.33121 4.0885C8.3131 4.14227 8.23346 4.24634 8.22578 4.30716C8.26097 4.40974 8.32632 4.55215 8.36788 4.65124L8.58201 5.16626C8.62391 5.26738 8.69532 5.42439 8.71894 5.52479C8.80456 5.88894 8.7783 6.27225 8.60609 6.60509C8.46213 6.88964 8.22255 7.11441 7.9294 7.23995C7.8329 7.2816 7.73159 7.31109 7.62782 7.32775C7.37104 7.36972 6.89799 7.36997 6.65255 7.27993C6.09293 7.07463 6.23318 6.54892 6.35917 6.1116C6.38844 6.01047 6.41087 5.87843 6.45283 5.78222C6.12031 5.76654 5.71838 5.77696 5.37921 5.77667L4.86714 5.77555C4.65959 5.77473 4.48711 5.76504 4.28289 5.81156C4.06567 5.85879 3.86472 5.96239 3.70023 6.11192C3.44394 6.34442 3.30082 6.63677 3.21936 6.96974C3.19591 7.06565 3.18384 7.16815 3.16153 7.25947C3.59315 7.24543 4.04707 7.25233 4.48041 7.2521L5.24316 7.25125C5.33225 7.25118 5.73124 7.24307 5.77891 7.27262C5.93835 7.3714 6.25034 7.77476 6.3971 7.89606L7.52102 7.8933C7.69531 7.89387 8.03366 7.90556 8.19855 7.89217C8.20105 7.89069 8.20356 7.88923 8.20603 7.88772C8.25993 7.85464 8.30421 7.8007 8.34799 7.75523C8.4482 7.65115 8.71158 7.34704 8.81552 7.28922C8.89876 7.24292 10.7252 7.26154 10.9653 7.25865C10.9037 6.9026 10.7943 6.61169 10.4879 6.39085C10.3544 6.2947 10.1677 6.22761 10.0044 6.21024C9.92315 6.20158 9.83826 6.20284 9.7581 6.18691C9.69723 6.09998 9.62626 5.93064 9.5794 5.82779L9.34138 5.30801L9.06806 4.7143C9.02345 4.6173 8.94487 4.45802 8.91592 4.36208C8.8184 4.35861 8.6607 4.36607 8.67778 4.23001C8.69432 4.09834 9.14403 4.14496 9.24548 4.13757C9.24411 3.89401 9.23838 3.6153 9.2503 3.37405C9.0586 3.37241 8.86687 3.37198 8.67515 3.37278C8.53269 3.3721 8.36027 3.36674 8.22093 3.37677C8.13735 3.40176 8.07661 3.43617 8.0119 3.4958ZM8.02498 4.37838C7.63612 4.40222 7.21675 4.37949 6.82531 4.38236C6.76645 4.38279 6.6844 4.35914 6.6284 4.34205C6.53375 4.31509 6.44258 4.20178 6.38487 4.17013C6.34232 4.32366 6.24404 4.63716 6.21511 4.78078L6.22491 4.78345C6.6196 4.88776 7.2301 4.74769 7.37361 5.27532C7.44956 5.55451 7.52369 5.84717 7.59009 6.12898C7.66138 6.43154 7.79759 6.77275 7.75562 7.07887C7.89251 7.01576 8.03626 6.95182 8.14517 6.84491C8.40537 6.59715 8.53871 6.29955 8.54669 5.93866C8.5493 5.8257 8.53722 5.71288 8.51076 5.60304C8.47563 5.46302 8.4223 5.36558 8.37312 5.23691C8.26849 4.96318 8.11219 4.6528 8.02498 4.37838ZM5.26048 8.60057C5.58324 8.29052 5.69785 7.8958 5.51392 7.47366C5.34696 7.46115 5.14317 7.46562 4.97332 7.46575L4.20854 7.46489C4.11151 7.46481 3.95536 7.47015 3.86171 7.46467C3.83807 7.46794 3.81019 7.46686 3.79975 7.49305C3.62288 7.9371 3.7556 8.41336 4.15405 8.66841C4.3651 8.80445 4.62203 8.84981 4.8669 8.79426C5.00264 8.76391 5.15382 8.69035 5.26048 8.60057ZM3.24317 2.57957C3.49971 2.62941 3.75666 2.67717 4.01398 2.72286C4.18762 2.75381 4.35875 2.78339 4.53009 2.82462C4.75394 2.87848 4.63522 3.05921 4.47326 3.03032C4.32149 3.00324 4.15898 2.97385 4.00823 2.94147C3.74473 2.88489 3.45628 2.85763 3.19991 2.78004C3.09645 3.3521 2.97963 3.93475 2.88132 4.50552C2.96528 4.5202 3.20561 4.56691 3.28123 4.56964C3.43956 4.60924 3.76559 4.65641 3.93521 4.68229C4.1688 4.71794 4.46137 4.78071 4.68943 4.80928C4.73318 4.6311 4.77122 4.42388 4.80871 4.24265L5.02963 3.17144C5.06876 2.98177 5.1092 2.79237 5.15094 2.60325C5.18007 2.46953 5.26043 2.22817 5.19707 2.10698C5.16488 2.04541 5.06588 2.02196 5.00299 2.00817C4.62636 1.93584 4.24604 1.87006 3.86991 1.79535C3.74614 1.77076 3.51503 1.73782 3.40699 1.70045C3.37816 1.77982 3.33407 2.06705 3.31802 2.16051C3.29953 2.26808 3.25354 2.47548 3.24317 2.57957ZM8.98454 7.4841C8.89641 7.7738 8.86405 8.03238 9.01271 8.31228C9.13156 8.53669 9.33492 8.70452 9.57776 8.77872C9.77911 8.83992 10.0444 8.82762 10.2338 8.73501C10.5808 8.55526 10.7904 8.25311 10.7846 7.85264C10.7825 7.7128 10.7509 7.61107 10.7075 7.47868C10.3184 7.4745 9.92487 7.48055 9.53554 7.48022C9.48423 7.48018 9.42499 7.48038 9.37395 7.48371C9.2442 7.48781 9.11436 7.48795 8.98454 7.4841ZM5.75266 2.65894C5.57388 2.69148 5.47004 2.73721 5.3557 2.8918C5.32915 2.92769 5.29381 3.01978 5.2832 3.06498C5.21291 3.36214 5.15619 3.6628 5.09381 3.96176C5.02977 4.26861 4.96195 4.57397 4.90566 4.88236C4.86457 5.10741 4.93561 5.32477 5.13083 5.45717C5.19599 5.50132 5.26937 5.5319 5.3466 5.54709C5.46014 5.56874 5.64675 5.56375 5.76705 5.56347L6.33375 5.56166C6.43508 5.56132 6.55487 5.55562 6.652 5.57639C6.72627 5.68828 6.76205 5.88349 6.80846 6.02093C6.91984 6.35087 6.9968 6.72795 7.12875 7.04773C7.19401 7.20591 7.53685 7.15635 7.54588 6.9625C7.56463 6.82911 7.5114 6.71153 7.47927 6.58576L7.34361 6.0458L7.22401 5.57213C7.20502 5.49718 7.17483 5.3645 7.147 5.295C7.09922 5.19874 7.03497 5.13613 6.93137 5.10202C6.76083 5.04588 6.46301 5.03207 6.27954 5.01439C6.20574 5.00727 6.12585 5.00502 6.05424 4.98521C6.02573 4.97732 5.98841 4.96302 5.97455 4.93476C5.93332 4.85067 6.16634 4.13982 6.20569 4.00976C6.11928 3.93836 5.90432 3.79835 5.89042 3.68405C5.88701 3.65604 5.89571 3.62969 5.91455 3.6087C5.9311 3.59028 5.96459 3.57108 5.9902 3.57149C6.12459 3.57364 6.54118 4.08328 6.73545 4.15007C6.84022 4.18609 7.82284 4.17051 7.99872 4.15536C8.12752 4.06269 8.19954 3.9537 8.09798 3.80541C8.062 3.75287 8.00303 3.72093 7.93909 3.71298C7.66007 3.67835 7.25368 3.74932 6.98975 3.6947C6.88905 3.59836 6.80646 3.4851 6.71177 3.38569C6.45578 3.11693 6.17906 2.63674 5.75266 2.65894ZM6.79054 7.09799C6.8306 7.10853 6.87532 7.12141 6.91543 7.12982C6.82404 6.83586 6.69966 6.41773 6.60836 6.11152C6.60162 6.10694 6.59588 6.10304 6.59112 6.09981C6.56621 6.17324 6.55039 6.25251 6.53234 6.32933C6.49109 6.50482 6.41348 6.70706 6.49648 6.88129C6.54541 6.98402 6.67892 7.076 6.79054 7.09799Z" fill="#008EB1"/>
<path d="M4.59128 7.65748C4.73959 7.61873 4.89108 7.70812 4.92888 7.85667C4.96667 8.00521 4.87632 8.15613 4.72754 8.19298C4.58009 8.22951 4.43081 8.14014 4.39336 7.99293C4.3559 7.84572 4.44431 7.69588 4.59128 7.65748Z" fill="#008EB1"/>
<path d="M9.77672 7.65677C9.87326 7.63249 9.97535 7.66216 10.0439 7.73439C10.1123 7.80663 10.1365 7.91019 10.1071 8.00529C10.0777 8.10039 9.99928 8.17223 9.90201 8.19322C9.75507 8.2249 9.60985 8.13296 9.57564 7.98659C9.54143 7.84022 9.63096 7.69346 9.77672 7.65677Z" fill="#008EB1"/>
<path d="M6.47818 0.827842C6.87805 0.812132 7.21552 1.12236 7.23344 1.52214C7.25136 1.92192 6.943 2.26109 6.54333 2.28122C6.14052 2.30151 5.7981 1.9902 5.78004 1.58729C5.76198 1.18437 6.07517 0.843675 6.47818 0.827842ZM6.59245 2.05662C6.86995 2.00865 7.05583 1.74454 7.00733 1.46713C6.95882 1.18972 6.69436 1.00435 6.41704 1.05339C6.14048 1.10229 5.95572 1.36588 6.00409 1.64254C6.05245 1.9192 6.3157 2.10447 6.59245 2.05662Z" fill="#008EB1"/>
<path d="M1.27253 6.51769C1.64886 6.51313 2.02726 6.52094 2.40392 6.51867C2.44179 6.52173 2.63432 6.51403 2.65109 6.54709C2.75398 6.74987 2.58748 6.74978 2.49289 6.75288C2.06447 6.76533 1.62462 6.74962 1.19511 6.75461C1.05211 6.75628 1.02015 6.66824 1.08121 6.5555C1.10355 6.51425 1.23138 6.51884 1.27253 6.51769Z" fill="#008EB1"/>
<path d="M1.86753 5.7985C2.03785 5.7954 2.90184 5.77188 2.99208 5.82391C3.01371 5.83638 3.02738 5.85433 3.03367 5.87852C3.04114 5.90719 3.03919 5.96202 3.02105 5.98628C3.00303 6.01034 2.97221 6.01828 2.9442 6.02295C2.81703 6.03543 1.87272 6.04829 1.81268 6.01293C1.78903 5.999 1.77303 5.97165 1.7654 5.94574C1.75664 5.91601 1.75716 5.88858 1.77367 5.86144C1.79543 5.82568 1.82875 5.8095 1.86753 5.7985Z" fill="#008EB1"/>
<path d="M1.8628 7.24681C1.97585 7.24715 2.52582 7.18286 2.36956 7.43577C2.33382 7.49361 2.06335 7.47187 1.98818 7.47358C1.88257 7.48253 1.28463 7.54173 1.46253 7.28892C1.50376 7.23032 1.78098 7.24645 1.8628 7.24681Z" fill="#008EB1"/>
</svg>
