<svg width="11" height="11" viewBox="0 0 11 11" fill="none" xmlns="http://www.w3.org/2000/svg">
<path d="M7.87944 3.34336C7.90678 3.35002 7.93517 3.35119 7.96297 3.3468C7.99076 3.3424 8.0174 3.33253 8.04135 3.31775C8.0653 3.30297 8.08607 3.28359 8.10247 3.26072C8.11886 3.23785 8.13055 3.21195 8.13685 3.18452C8.14315 3.1571 8.14395 3.1287 8.13919 3.10096C8.13442 3.07323 8.1242 3.04672 8.10911 3.02297C8.09402 2.99922 8.07436 2.9787 8.05128 2.96261C8.02819 2.94652 8.00214 2.93517 7.97464 2.92923L6.56885 2.60626C6.5413 2.59893 6.51256 2.59722 6.48433 2.60124C6.4561 2.60525 6.42897 2.6149 6.40456 2.62962C6.38014 2.64434 6.35893 2.66382 6.3422 2.6869C6.32547 2.70998 6.31355 2.7362 6.30716 2.76398C6.30077 2.79176 6.30004 2.82055 6.30501 2.84862C6.30997 2.8767 6.32054 2.90348 6.33608 2.92739C6.35161 2.95129 6.3718 2.97183 6.39544 2.98777C6.41907 3.00371 6.44568 3.01473 6.47366 3.02017L7.87944 3.34336Z" fill="#008EB1"/>
<path fill-rule="evenodd" clip-rule="evenodd" d="M7.22414 4.67462C7.67497 4.67462 8.10733 4.49553 8.42612 4.17674C8.7449 3.85796 8.924 3.42559 8.924 2.97476C8.924 2.52393 8.7449 2.09156 8.42612 1.77278C8.10733 1.45399 7.67497 1.2749 7.22414 1.2749C6.77331 1.2749 6.34094 1.45399 6.02216 1.77278C5.70337 2.09156 5.52428 2.52393 5.52428 2.97476C5.52428 3.42559 5.70337 3.85796 6.02216 4.17674C6.34094 4.49553 6.77331 4.67462 7.22414 4.67462ZM7.22414 4.24965C7.39156 4.24965 7.55734 4.21668 7.71202 4.15261C7.86669 4.08854 8.00724 3.99463 8.12562 3.87625C8.24401 3.75786 8.33792 3.61732 8.40199 3.46264C8.46605 3.30796 8.49903 3.14218 8.49903 2.97476C8.49903 2.80734 8.46605 2.64156 8.40199 2.48688C8.33792 2.3322 8.24401 2.19166 8.12562 2.07327C8.00724 1.95489 7.86669 1.86098 7.71202 1.79691C7.55734 1.73284 7.39156 1.69987 7.22414 1.69987C6.88601 1.69987 6.56174 1.83419 6.32265 2.07327C6.08356 2.31236 5.94924 2.63664 5.94924 2.97476C5.94924 3.31288 6.08356 3.63716 6.32265 3.87625C6.56174 4.11534 6.88601 4.24965 7.22414 4.24965ZM3.56477 1.96441C3.42729 1.63888 2.96705 1.60616 2.78241 1.90852L1.33668 4.27409C1.16988 4.54692 1.35623 4.89539 1.68154 4.91855L4.20285 5.09831C4.52795 5.12168 4.76465 4.80338 4.64056 4.50973L3.56477 1.96441ZM3.14681 2.12759L3.1449 2.13014L1.70172 4.49188L1.70215 4.49231L1.70427 4.49316C1.70671 4.49412 1.7093 4.49463 1.71192 4.49465L4.23345 4.67441H4.24152C4.24374 4.67369 4.24582 4.67261 4.24768 4.67122L3.17337 2.12993L3.17252 2.12781C3.16906 2.12575 3.16508 2.12471 3.16105 2.12483C3.15657 2.12439 3.15205 2.12504 3.14788 2.12674L3.14724 2.12696L3.14681 2.12759ZM7.51842 7.72586C7.82488 7.58298 8.06202 7.32421 8.17768 7.00648C8.29334 6.68875 8.27804 6.33809 8.13515 6.03164C7.99227 5.72518 7.7335 5.48805 7.41577 5.37239C7.09804 5.25673 6.74738 5.27202 6.44093 5.41491L4.12997 6.49219C3.82349 6.63508 3.58632 6.89386 3.47064 7.21161C3.35496 7.52936 3.37025 7.88005 3.51313 8.18653C3.65602 8.49301 3.9148 8.73017 4.23255 8.84585C4.5503 8.96153 4.90099 8.94625 5.20747 8.80336L7.51842 7.72586ZM4.30952 6.87764C4.20725 6.92409 4.1152 6.99036 4.0387 7.07261C3.9622 7.15486 3.90277 7.25146 3.86383 7.35682C3.82489 7.46218 3.80722 7.57421 3.81184 7.68645C3.81647 7.79868 3.84329 7.90888 3.89077 8.01068C3.93824 8.11248 4.00542 8.20386 4.08843 8.27954C4.17144 8.35521 4.26862 8.41369 4.37436 8.45158C4.4801 8.48947 4.59231 8.50602 4.70449 8.50028C4.81667 8.49454 4.9266 8.46662 5.02792 8.41813L5.97687 7.97553L5.25868 6.43503L4.30952 6.87764ZM6.3621 7.79598L5.64369 6.25549L6.62047 5.79992C6.72187 5.75087 6.83201 5.72247 6.94448 5.71636C7.05695 5.71025 7.16951 5.72655 7.27563 5.76433C7.38174 5.8021 7.47929 5.86059 7.5626 5.9364C7.64591 6.01221 7.71332 6.10382 7.76092 6.2059C7.80851 6.30799 7.83534 6.41852 7.83984 6.53107C7.84434 6.64362 7.82643 6.75594 7.78714 6.8615C7.74785 6.96706 7.68797 7.06376 7.61098 7.14598C7.53399 7.2282 7.44142 7.29429 7.33867 7.34042L6.3621 7.79598Z" fill="#008EB1"/>
</svg>
