<svg width="10" height="10" viewBox="0 0 10 10" fill="none" xmlns="http://www.w3.org/2000/svg">
<path d="M6.28711 0.261719C7.28665 0.261719 8.12087 1.12144 8.12109 2.21191C8.12109 3.3026 7.28679 4.16309 6.28711 4.16309C5.28752 4.16297 4.45312 3.30252 4.45312 2.21191C4.45335 1.12151 5.28766 0.261833 6.28711 0.261719Z" stroke="#008EB1" stroke-width="0.523976"/>
<path d="M3.66797 0.261719C4.66751 0.261719 5.50173 1.12144 5.50195 2.21191C5.50195 3.3026 4.66764 4.16309 3.66797 4.16309C2.66838 4.16297 1.83398 3.30252 1.83398 2.21191C1.83421 1.12151 2.66851 0.261833 3.66797 0.261719Z" stroke="#008EB1" stroke-width="0.523976"/>
<path d="M2.0957 3.02722C3.09525 3.02722 3.92947 3.88694 3.92969 4.97742C3.92969 6.0681 3.09538 6.92859 2.0957 6.92859C1.09612 6.92847 0.261719 6.06803 0.261719 4.97742C0.261941 3.88701 1.09625 3.02734 2.0957 3.02722Z" stroke="#008EB1" stroke-width="0.523976"/>
<path d="M3.66797 5.7926C4.66751 5.7926 5.50173 6.65232 5.50195 7.7428C5.50195 8.83348 4.66764 9.69397 3.66797 9.69397C2.66838 9.69386 1.83398 8.83341 1.83398 7.7428C1.83421 6.65239 2.66851 5.79272 3.66797 5.7926Z" stroke="#008EB1" stroke-width="0.523976"/>
<path d="M6.28711 5.7926C7.28665 5.7926 8.12087 6.65232 8.12109 7.7428C8.12109 8.83348 7.28679 9.69397 6.28711 9.69397C5.28752 9.69386 4.45312 8.83341 4.45312 7.7428C4.45335 6.65239 5.28766 5.79272 6.28711 5.7926Z" stroke="#008EB1" stroke-width="0.523976"/>
<path d="M7.85938 3.02722C8.85892 3.02722 9.69314 3.88694 9.69336 4.97742C9.69336 6.0681 8.85905 6.92859 7.85938 6.92859C6.85979 6.92847 6.02539 6.06803 6.02539 4.97742C6.02561 3.88701 6.85992 3.02734 7.85938 3.02722Z" stroke="#008EB1" stroke-width="0.523976"/>
</svg>
