<svg width="10" height="10" viewBox="0 0 10 10" fill="none" xmlns="http://www.w3.org/2000/svg">
<path d="M8.39986 4.48595C8.20373 4.39985 7.99183 4.35548 7.77764 4.35567H2.17763C1.96345 4.35546 1.75156 4.39976 1.55541 4.48575C1.27817 4.60699 1.04225 4.80637 0.8765 5.05953C0.710747 5.31268 0.622335 5.60864 0.62207 5.91123V8.08901C0.62207 8.17152 0.654848 8.25065 0.713193 8.309C0.771538 8.36734 0.85067 8.40012 0.933182 8.40012C1.01569 8.40012 1.09483 8.36734 1.15317 8.309C1.21152 8.25065 1.24429 8.17152 1.24429 8.08901V7.93345C1.2448 7.89235 1.26135 7.85308 1.29041 7.82402C1.31948 7.79495 1.35875 7.7784 1.39985 7.7779H8.55542C8.59652 7.7784 8.63579 7.79495 8.66485 7.82402C8.69392 7.85308 8.71047 7.89235 8.71097 7.93345V8.08901C8.71097 8.17152 8.74375 8.25065 8.80209 8.309C8.86044 8.36734 8.93957 8.40012 9.02208 8.40012C9.1046 8.40012 9.18373 8.36734 9.24207 8.309C9.30042 8.25065 9.33319 8.17152 9.33319 8.08901V5.91123C9.33289 5.60867 9.24446 5.31275 9.07871 5.05964C8.91296 4.80652 8.67707 4.60717 8.39986 4.48595ZM7.31097 1.55566H2.6443C2.3555 1.55566 2.07854 1.67039 1.87433 1.87459C1.67013 2.0788 1.55541 2.35576 1.55541 2.64455V4.04456C1.55541 4.05661 1.55822 4.0685 1.56361 4.07928C1.569 4.09006 1.57682 4.09944 1.58646 4.10668C1.59609 4.11392 1.60728 4.11882 1.61913 4.121C1.63099 4.12318 1.64319 4.12257 1.65477 4.11922C1.82461 4.06955 2.00067 4.04441 2.17763 4.04456H2.25988C2.27908 4.04468 2.29764 4.0377 2.312 4.02495C2.32636 4.01221 2.3355 3.99461 2.33766 3.97553C2.35463 3.82351 2.427 3.68307 2.54095 3.58103C2.6549 3.47898 2.80244 3.42249 2.95541 3.42233H4.0443C4.19736 3.42235 4.34505 3.47877 4.45912 3.58083C4.5732 3.68289 4.64565 3.82341 4.66263 3.97553C4.66479 3.99461 4.67393 4.01221 4.68829 4.02495C4.70265 4.0377 4.72121 4.04468 4.74041 4.04456H5.21602C5.23522 4.04468 5.25378 4.0377 5.26814 4.02495C5.2825 4.01221 5.29164 3.99461 5.2938 3.97553C5.31076 3.82361 5.38305 3.68325 5.49687 3.58122C5.6107 3.47919 5.75811 3.42263 5.91097 3.42233H6.99986C7.15292 3.42235 7.30061 3.47877 7.41468 3.58083C7.52876 3.68289 7.60121 3.82341 7.61819 3.97553C7.62035 3.99461 7.62949 4.01221 7.64385 4.02495C7.65821 4.0377 7.67677 4.04468 7.69597 4.04456H7.77764C7.9546 4.04447 8.13067 4.06968 8.3005 4.11942C8.31209 4.12277 8.32431 4.12337 8.33618 4.12118C8.34805 4.119 8.35925 4.11408 8.36889 4.10682C8.37852 4.09955 8.38634 4.09015 8.39172 4.07934C8.39709 4.06853 8.39988 4.05663 8.39986 4.04456V2.64455C8.39986 2.35576 8.28514 2.0788 8.08093 1.87459C7.87673 1.67039 7.59976 1.55566 7.31097 1.55566Z" fill="#008EB1"/>
</svg>
