<svg width="11" height="11" viewBox="0 0 11 11" fill="none" xmlns="http://www.w3.org/2000/svg">
<g clip-path="url(#clip0_2205_12136)">
<path d="M7.33089 0.318726H2.23131M6.37472 2.23107H3.18748M0.637695 5.4183H1.91259M1.27514 4.78085V6.05575M6.37472 8.28681C6.37472 8.70947 6.20682 9.11481 5.90796 9.41367C5.6091 9.71253 5.20375 9.88043 4.7811 9.88043C4.35845 9.88043 3.9531 9.71253 3.65424 9.41367C3.35538 9.11481 3.18748 8.70947 3.18748 8.28681V0.318726H6.37472V8.28681ZM8.9245 2.86851C9.09357 2.86851 9.2557 2.80135 9.37525 2.68181C9.49479 2.56226 9.56195 2.40013 9.56195 2.23107C9.56195 2.062 9.49479 1.89987 9.37525 1.78032C9.2557 1.66078 9.09357 1.59362 8.9245 1.59362C8.75544 1.59362 8.59331 1.66078 8.47376 1.78032C8.35422 1.89987 8.28706 2.062 8.28706 2.23107C8.28706 2.40013 8.35422 2.56226 8.47376 2.68181C8.59331 2.80135 8.75544 2.86851 8.9245 2.86851Z" stroke="#008EB1" stroke-width="0.424965" stroke-linecap="round" stroke-linejoin="round"/>
<path d="M5.25909 3.8247C5.21682 3.8247 5.17629 3.80792 5.1464 3.77803C5.11651 3.74814 5.09972 3.70761 5.09972 3.66534C5.09972 3.62308 5.11651 3.58254 5.1464 3.55266C5.17629 3.52277 5.21682 3.50598 5.25909 3.50598M5.25909 3.8247C5.30135 3.8247 5.34189 3.80792 5.37177 3.77803C5.40166 3.74814 5.41845 3.70761 5.41845 3.66534C5.41845 3.62308 5.40166 3.58254 5.37177 3.55266C5.34189 3.52277 5.30135 3.50598 5.25909 3.50598M4.30292 5.73705C4.26065 5.73705 4.22012 5.72026 4.19023 5.69037C4.16034 5.66048 4.14355 5.61995 4.14355 5.57768C4.14355 5.53542 4.16034 5.49488 4.19023 5.465C4.22012 5.43511 4.26065 5.41832 4.30292 5.41832M4.30292 5.73705C4.34518 5.73705 4.38572 5.72026 4.4156 5.69037C4.44549 5.66048 4.46228 5.61995 4.46228 5.57768C4.46228 5.53542 4.44549 5.49488 4.4156 5.465C4.38572 5.43511 4.34518 5.41832 4.30292 5.41832M4.94036 7.64939C4.8981 7.64939 4.85756 7.6326 4.82768 7.60271C4.79779 7.57282 4.781 7.53229 4.781 7.49002C4.781 7.44776 4.79779 7.40722 4.82768 7.37734C4.85756 7.34745 4.8981 7.33066 4.94036 7.33066M4.94036 7.64939C4.98263 7.64939 5.02316 7.6326 5.05305 7.60271C5.08294 7.57282 5.09972 7.53229 5.09972 7.49002C5.09972 7.44776 5.08294 7.40722 5.05305 7.37734C5.02316 7.34745 4.98263 7.33066 4.94036 7.33066" stroke="#008EB1" stroke-width="0.637447"/>
</g>
<defs>
<clipPath id="clip0_2205_12136">
<rect width="10.1992" height="10.1992" fill="white"/>
</clipPath>
</defs>
</svg>
