<svg width="6" height="9" viewBox="0 0 6 9" fill="none" xmlns="http://www.w3.org/2000/svg">
<g clip-path="url(#clip0_2205_12194)">
<path d="M3.59513 0.829631C3.59513 1.28783 3.22353 1.65926 2.7655 1.65926C2.30748 1.65926 1.93587 1.28783 1.93587 0.829631C1.93587 0.371433 2.30748 0 2.7655 0C3.22353 0 3.59513 0.371433 3.59513 0.829631ZM2.62723 6.08396V8.29631C2.62723 8.60224 2.38007 8.8494 2.07414 8.8494C1.76822 8.8494 1.52106 8.60224 1.52106 8.29631V4.44025L1.02725 5.26297C0.869968 5.52396 0.530165 5.60865 0.268313 5.45137C0.00646049 5.29408 -0.0782483 4.95532 0.079105 4.6926L1.08636 3.01778C1.38624 2.51828 1.9255 2.21235 2.50797 2.21235H3.02303C3.6055 2.21235 4.14476 2.51828 4.4455 3.01778L5.45143 4.6926C5.60872 4.95532 5.52402 5.29408 5.26304 5.45137C5.00032 5.60865 4.66155 5.52396 4.50427 5.26297L4.00995 4.44025V8.29631C4.00995 8.60224 3.76279 8.8494 3.45686 8.8494C3.15093 8.8494 2.90377 8.60224 2.90377 8.29631V6.08396H2.62723Z" fill="#008EB1"/>
</g>
<defs>
<clipPath id="clip0_2205_12194">
<rect width="5.53087" height="8.8494" fill="white"/>
</clipPath>
</defs>
</svg>
