<svg width="11" height="11" viewBox="0 0 11 11" fill="none" xmlns="http://www.w3.org/2000/svg">
<path d="M4.75394 7.7803H6.48269M5.83441 3.45843H6.24197C6.80813 3.45843 7.09165 3.45843 7.33151 3.59457C7.57181 3.73027 7.73172 3.98137 8.05197 4.48314C8.2767 4.83494 8.51181 5.0908 8.8433 5.3177C9.17695 5.54676 9.336 5.65869 9.42373 5.83805C9.50801 6.01006 9.50801 6.21362 9.50801 6.62074C9.50801 7.15795 9.50801 7.42634 9.35717 7.59705L9.33729 7.61823C9.17868 7.7803 8.92844 7.7803 8.42883 7.7803H8.21144M5.83441 3.45843C5.83441 2.84731 5.83441 2.54176 5.64425 2.35203C5.45452 2.16187 5.14896 2.16187 4.53785 2.16187H2.16082C1.54927 2.16187 1.24372 2.16187 1.05442 2.35203C0.864258 2.54176 0.864258 2.84731 0.864258 3.45843V6.48374C0.864258 7.09528 0.864258 7.40084 1.05442 7.59014C1.24415 7.7803 1.54971 7.7803 2.16082 7.7803M5.83441 3.45843V7.7803H3.88957M9.50801 6.48374H9.07582M3.45738 3.89061V5.61936M4.32176 4.75499H2.59301" stroke="#008EB1" stroke-width="0.648281" stroke-linecap="round" stroke-linejoin="round"/>
<path d="M7.34191 8.6455C7.8193 8.6455 8.20629 8.2585 8.20629 7.78112C8.20629 7.30374 7.8193 6.91675 7.34191 6.91675C6.86453 6.91675 6.47754 7.30374 6.47754 7.78112C6.47754 8.2585 6.86453 8.6455 7.34191 8.6455Z" stroke="#008EB1" stroke-width="0.648281"/>
<path d="M3.02844 8.6455C3.50582 8.6455 3.89281 8.2585 3.89281 7.78112C3.89281 7.30374 3.50582 6.91675 3.02844 6.91675C2.55106 6.91675 2.16406 7.30374 2.16406 7.78112C2.16406 8.2585 2.55106 8.6455 3.02844 8.6455Z" stroke="#008EB1" stroke-width="0.648281"/>
</svg>
