<svg width="11" height="11" viewBox="0 0 11 11" fill="none" xmlns="http://www.w3.org/2000/svg">
<path d="M2.33691 6.37449C2.33691 6.31814 2.3593 6.26409 2.39915 6.22425C2.439 6.1844 2.49304 6.16201 2.5494 6.16201H5.52415C5.5805 6.16201 5.63455 6.1844 5.6744 6.22425C5.71424 6.26409 5.73663 6.31814 5.73663 6.37449C5.73663 6.43085 5.71424 6.48489 5.6744 6.52474C5.63455 6.56459 5.5805 6.58698 5.52415 6.58698H2.5494C2.49304 6.58698 2.439 6.56459 2.39915 6.52474C2.3593 6.48489 2.33691 6.43085 2.33691 6.37449ZM2.5494 7.22442C2.49304 7.22442 2.439 7.24681 2.39915 7.28666C2.3593 7.32651 2.33691 7.38055 2.33691 7.43691C2.33691 7.49326 2.3593 7.54731 2.39915 7.58715C2.439 7.627 2.49304 7.64939 2.5494 7.64939H5.52415C5.5805 7.64939 5.63455 7.627 5.6744 7.58715C5.71424 7.54731 5.73663 7.49326 5.73663 7.43691C5.73663 7.38055 5.71424 7.32651 5.6744 7.28666C5.63455 7.24681 5.5805 7.22442 5.52415 7.22442H2.5494ZM2.65564 4.46215C2.83166 4.46215 2.97436 4.31946 2.97436 4.14343V4.03719C2.97436 3.91984 3.06949 3.82471 3.18684 3.82471C3.30419 3.82471 3.39933 3.91984 3.39933 4.03719V4.14343C3.39933 4.31946 3.54202 4.46215 3.71805 4.46215H3.82429C3.94164 4.46215 4.03677 4.55729 4.03677 4.67464C4.03677 4.79199 3.94164 4.88712 3.82429 4.88712H3.71805C3.54202 4.88712 3.39933 5.02982 3.39933 5.20584V5.31208C3.39933 5.42943 3.30419 5.52457 3.18684 5.52457C3.06949 5.52457 2.97436 5.42943 2.97436 5.31208V5.20584C2.97436 5.02982 2.83166 4.88712 2.65564 4.88712H2.5494C2.43205 4.88712 2.33691 4.79199 2.33691 4.67464C2.33691 4.55729 2.43205 4.46215 2.5494 4.46215H2.65564Z" fill="#008EB1" stroke="#008EB1" stroke-width="0.254979"/>
<path fill-rule="evenodd" clip-rule="evenodd" d="M3.18675 1.2749C3.01769 1.2749 2.85556 1.34206 2.73601 1.46161C2.61647 1.58115 2.54931 1.74329 2.54931 1.91235H1.91186C1.7428 1.91235 1.58066 1.97951 1.46112 2.09905C1.34157 2.2186 1.27441 2.38073 1.27441 2.5498V8.28682C1.27441 8.45588 1.34157 8.61802 1.46112 8.73756C1.58066 8.85711 1.7428 8.92426 1.91186 8.92426H6.16151C6.33057 8.92426 6.49271 8.85711 6.61225 8.73756C6.73179 8.61802 6.79895 8.45588 6.79895 8.28682V2.5498C6.79895 2.38073 6.73179 2.2186 6.61225 2.09905C6.49271 1.97951 6.33057 1.91235 6.16151 1.91235H5.52406C5.52406 1.74329 5.4569 1.58115 5.33736 1.46161C5.21781 1.34206 5.05567 1.2749 4.88661 1.2749H3.18675ZM4.88661 2.5498C4.94297 2.5498 4.99701 2.52741 5.03686 2.48756C5.07671 2.44771 5.0991 2.39367 5.0991 2.33731V1.91235C5.0991 1.856 5.07671 1.80195 5.03686 1.7621C4.99701 1.72225 4.94297 1.69987 4.88661 1.69987H3.18675C3.1304 1.69987 3.07636 1.72225 3.03651 1.7621C2.99666 1.80195 2.97427 1.856 2.97427 1.91235V2.33731C2.97427 2.39367 2.99666 2.44771 3.03651 2.48756C3.07636 2.52741 3.1304 2.5498 3.18675 2.5498H4.88661ZM2.54931 2.33731C2.54931 2.50638 2.61647 2.66851 2.73601 2.78806C2.85556 2.9076 3.01769 2.97476 3.18675 2.97476H4.88661C5.05567 2.97476 5.21781 2.9076 5.33736 2.78806C5.4569 2.66851 5.52406 2.50638 5.52406 2.33731H6.16151C6.21786 2.33731 6.27191 2.3597 6.31175 2.39955C6.3516 2.4394 6.37399 2.49344 6.37399 2.5498V8.28682C6.37399 8.34317 6.3516 8.39722 6.31175 8.43707C6.27191 8.47691 6.21786 8.4993 6.16151 8.4993H1.91186C1.85551 8.4993 1.80146 8.47691 1.76161 8.43707C1.72177 8.39722 1.69938 8.34317 1.69938 8.28682V2.5498C1.69938 2.49344 1.72177 2.4394 1.76161 2.39955C1.80146 2.3597 1.85551 2.33731 1.91186 2.33731H2.54931ZM7.64888 3.61221C7.64888 3.44315 7.71604 3.28101 7.83559 3.16146C7.95513 3.04192 8.11727 2.97476 8.28633 2.97476C8.45539 2.97476 8.61753 3.04192 8.73707 3.16146C8.85662 3.28101 8.92378 3.44315 8.92378 3.61221V7.92624L8.28633 8.88241L7.64888 7.92624V3.61221ZM8.28633 3.39973C8.22998 3.39973 8.17593 3.42211 8.13608 3.46196C8.09623 3.50181 8.07385 3.55585 8.07385 3.61221V4.03717H8.49881V3.61221C8.49881 3.55585 8.47643 3.50181 8.43658 3.46196C8.39673 3.42211 8.34268 3.39973 8.28633 3.39973ZM8.28633 8.11619L8.49881 7.79747V4.46214H8.07385V7.79747L8.28633 8.11619Z" fill="#008EB1" stroke="#008EB1" stroke-width="0.254979"/>
</svg>
