<svg preserveAspectRatio="none" width="100%" height="100%" overflow="visible" style="display: block;" viewBox="0 0 40.4939 36.0589" fill="none" xmlns="http://www.w3.org/2000/svg">
<g id="Vector">
<mask id="path-1-outside-1_0_125" maskUnits="userSpaceOnUse" x="-0.66854" y="-0.6" width="42" height="37" fill="black">
<rect fill="white" x="-0.66854" y="-0.6" width="42" height="37"/>
<path d="M37.3015 27.0017C36.7395 28.1618 36.9055 29.844 37.8249 30.7475C38.1539 31.0708 38.4582 31.4225 38.7378 31.8025C39.3279 32.6047 39.7657 33.4783 40.0512 34.4231C40.2439 35.0609 39.7296 35.6589 39.0634 35.6589C38.5431 35.6589 38.106 35.2855 37.9366 34.7936C37.7899 34.3677 37.5978 33.961 37.3605 33.5733C36.967 32.9305 36.4882 32.3796 35.9242 31.9205C35.3602 31.4614 34.724 31.0942 34.0157 30.8187C33.3074 30.5433 32.5728 30.4121 31.812 30.4252C31.0381 30.4252 30.3036 30.5564 29.6084 30.8187C28.9132 31.0811 28.277 31.4418 27.6999 31.9009C27.1227 32.36 26.644 32.9174 26.2636 33.5733C26.0341 33.9689 25.8452 34.3789 25.6969 34.8032C25.5257 35.2928 25.0863 35.6589 24.5676 35.6589C23.8959 35.6589 23.3754 35.0585 23.5683 34.4151C23.8475 33.4836 24.2802 32.6193 24.8666 31.8222C25.1537 31.4319 25.4677 31.0707 25.8085 30.7387C26.7335 29.8377 26.9052 28.1638 26.3423 27.0017C25.9357 26.1622 25.7258 25.2703 25.7127 24.3258C25.7127 23.7356 25.7914 23.165 25.9488 22.6141C26.1062 22.0632 26.3423 21.5451 26.6571 21.0597C26.9719 20.5744 27.3457 20.1416 27.7786 19.7612C28.4706 19.153 28.7668 18.0985 28.0742 17.491C28.0544 17.4737 28.0346 17.4566 28.0147 17.4395C27.5556 17.046 27.0572 16.6984 26.5194 16.3967C25.9816 16.095 25.4175 15.8786 24.8273 15.7474C24.237 15.6162 23.6271 15.5375 22.9975 15.5113C21.9481 15.5113 20.9447 15.7146 19.9871 16.1212C19.3999 16.3706 18.8595 16.6915 18.366 17.084C17.7847 17.5463 17.672 18.3442 17.8166 19.0727C17.9126 19.5565 17.9606 20.0483 17.9606 20.5482C17.9606 21.7549 17.6917 22.8895 17.1539 23.952C17.0435 24.1702 16.9239 24.3811 16.7953 24.5849C16.1056 25.677 16.2441 27.3454 17.1932 28.2216C17.8753 28.8512 18.4656 29.5595 18.964 30.3465C19.4625 31.1335 19.8363 31.973 20.0855 32.865C20.2246 33.3626 20.3269 33.8726 20.3924 34.3947C20.4793 35.0867 19.9087 35.6589 19.2113 35.6589C18.5205 35.6589 17.9727 35.0952 17.8613 34.4134C17.7661 33.8308 17.6024 33.2688 17.3703 32.7272C16.9768 31.809 16.439 31.0089 15.7569 30.3268C15.0749 29.6448 14.2682 29.1004 13.3369 28.6938C12.4056 28.2872 11.4284 28.0904 10.4052 28.1035C9.35589 28.1035 8.37868 28.3003 7.47362 28.6938C6.56855 29.0873 5.76842 29.6251 5.07322 30.3072C4.37803 30.9892 3.83367 31.7959 3.44017 32.7272C3.21044 33.2709 3.04777 33.8302 2.95216 34.4052C2.83808 35.0912 2.28613 35.6589 1.59068 35.6589C0.895234 35.6589 0.322462 35.0929 0.409033 34.4028C0.473794 33.8866 0.579106 33.3806 0.724967 32.8846C0.987306 31.9927 1.36114 31.1532 1.84646 30.3662C2.33179 29.5792 2.91549 28.8709 3.59757 28.2412C4.55884 27.3539 4.69527 25.6706 4.00079 24.5619C3.87761 24.3653 3.76287 24.162 3.6566 23.952C3.1188 22.8895 2.84991 21.7549 2.84991 20.5482C2.84991 19.5119 3.04666 18.5347 3.44017 17.6166C3.83367 16.6984 4.37147 15.8982 5.05355 15.2162C5.73562 14.5341 6.53576 13.9897 7.45394 13.5831C8.37212 13.1765 9.35589 12.9797 10.4052 12.9928C11.5202 12.9928 12.5761 13.2289 13.573 13.7012C14.1418 13.9706 14.6679 14.2998 15.1513 14.6888C15.7517 15.172 16.6307 15.2108 17.2719 14.7833C17.8346 14.4082 17.8934 13.5674 17.4345 13.0707C16.9631 12.5604 16.5679 11.9901 16.2488 11.3598C15.711 10.2973 15.4421 9.16271 15.4421 7.95595C15.4421 6.91972 15.6389 5.94251 16.0324 5.02432C16.4259 4.10614 16.9637 3.30601 17.6458 2.62393C18.3279 1.94185 19.128 1.3975 20.0462 0.990875C20.9644 0.584251 21.9481 0.387498 22.9975 0.400615C24.0337 0.400615 25.0109 0.597368 25.9291 0.990875C26.8473 1.38438 27.6474 1.92218 28.3295 2.60425C29.0116 3.28633 29.5559 4.09302 29.9625 5.02432C30.3692 5.95562 30.5659 6.93283 30.5528 7.95595C30.5528 9.16271 30.2839 10.2973 29.7461 11.3598C29.6734 11.5035 29.5967 11.644 29.5161 11.7815C28.7987 13.0041 28.933 14.832 29.9625 15.8064C30.4196 16.239 30.8335 16.7147 31.2042 17.2336C31.6259 17.8239 32.2876 18.1986 33.0002 18.3345C33.412 18.4131 33.8095 18.5344 34.1928 18.6987C34.9273 19.0135 35.5766 19.4529 36.1406 20.0169C36.7046 20.581 37.1375 21.2237 37.4392 21.9451C37.7409 22.6666 37.8983 23.4601 37.9114 24.3258C37.9114 25.2703 37.7081 26.1622 37.3015 27.0017ZM10.4052 25.5851C11.1004 25.5851 11.7497 25.4539 12.3531 25.1916C12.9565 24.9292 13.4943 24.5685 13.9665 24.1094C14.4387 23.6503 14.7994 23.1191 15.0486 22.5157C15.2978 21.9123 15.429 21.2565 15.4421 20.5482C15.4421 19.853 15.311 19.2037 15.0486 18.6003C14.7863 17.9969 14.4256 17.4591 13.9665 16.9869C13.5074 16.5147 12.9762 16.154 12.3728 15.9048C11.7694 15.6556 11.1136 15.5244 10.4052 15.5113C9.71005 15.5113 9.06076 15.6425 8.45738 15.9048C7.854 16.1671 7.31621 16.5278 6.844 16.9869C6.37179 17.446 6.01108 17.9773 5.76186 18.5806C5.51264 19.184 5.38147 19.8399 5.36835 20.5482C5.36835 21.2434 5.49952 21.8927 5.76186 22.496C6.0242 23.0994 6.38491 23.6372 6.844 24.1094C7.3031 24.5816 7.83433 24.9423 8.43771 25.1916C9.04108 25.4408 9.69693 25.572 10.4052 25.5851ZM17.9606 7.95595C17.9606 8.65115 18.0917 9.30043 18.3541 9.90381C18.6164 10.5072 18.9771 11.045 19.4362 11.5172C19.8953 11.9894 20.4266 12.3501 21.0299 12.5993C21.6333 12.8486 22.2892 12.9797 22.9975 12.9928C23.6927 12.9928 24.342 12.8617 24.9453 12.5993C25.5487 12.337 26.0865 11.9763 26.5587 11.5172C27.0309 11.0581 27.3916 10.5269 27.6409 9.92349C27.8901 9.32011 28.0212 8.66426 28.0344 7.95595C28.0344 7.26076 27.9032 6.61147 27.6409 6.00809C27.3785 5.40471 27.0178 4.86692 26.5587 4.39471C26.0996 3.9225 25.5684 3.56179 24.965 3.31257C24.3616 3.06335 23.7058 2.93218 22.9975 2.91906C22.3023 2.91906 21.653 3.05023 21.0496 3.31257C20.4462 3.57491 19.9084 3.93562 19.4362 4.39471C18.964 4.8538 18.6033 5.38504 18.3541 5.98842C18.1049 6.59179 17.9737 7.24764 17.9606 7.95595ZM31.812 20.3514C31.2611 20.3514 30.7496 20.4564 30.2774 20.6662C29.8051 20.8761 29.3854 21.1581 29.0181 21.5123C28.6509 21.8664 28.3623 22.2862 28.1524 22.7715C27.9425 23.2568 27.8376 23.7749 27.8376 24.3258C27.8376 24.8768 27.9425 25.3883 28.1524 25.8605C28.3623 26.3327 28.6443 26.7525 28.9985 27.1197C29.3526 27.487 29.7724 27.7756 30.2577 27.9855C30.743 28.1953 31.2611 28.3003 31.812 28.3003C32.3629 28.3003 32.8745 28.1953 33.3467 27.9855C33.8189 27.7756 34.2387 27.4936 34.6059 27.1394C34.9732 26.7853 35.2618 26.3655 35.4716 25.8802C35.6815 25.3949 35.7865 24.8768 35.7865 24.3258C35.7865 23.7749 35.6815 23.2634 35.4716 22.7912C35.2618 22.319 34.9798 21.8992 34.6256 21.5319C34.2715 21.1647 33.8517 20.8761 33.3664 20.6662C32.8811 20.4564 32.3629 20.3514 31.812 20.3514Z"/>
</mask>
<path d="M37.3015 27.0017C36.7395 28.1618 36.9055 29.844 37.8249 30.7475C38.1539 31.0708 38.4582 31.4225 38.7378 31.8025C39.3279 32.6047 39.7657 33.4783 40.0512 34.4231C40.2439 35.0609 39.7296 35.6589 39.0634 35.6589C38.5431 35.6589 38.106 35.2855 37.9366 34.7936C37.7899 34.3677 37.5978 33.961 37.3605 33.5733C36.967 32.9305 36.4882 32.3796 35.9242 31.9205C35.3602 31.4614 34.724 31.0942 34.0157 30.8187C33.3074 30.5433 32.5728 30.4121 31.812 30.4252C31.0381 30.4252 30.3036 30.5564 29.6084 30.8187C28.9132 31.0811 28.277 31.4418 27.6999 31.9009C27.1227 32.36 26.644 32.9174 26.2636 33.5733C26.0341 33.9689 25.8452 34.3789 25.6969 34.8032C25.5257 35.2928 25.0863 35.6589 24.5676 35.6589C23.8959 35.6589 23.3754 35.0585 23.5683 34.4151C23.8475 33.4836 24.2802 32.6193 24.8666 31.8222C25.1537 31.4319 25.4677 31.0707 25.8085 30.7387C26.7335 29.8377 26.9052 28.1638 26.3423 27.0017C25.9357 26.1622 25.7258 25.2703 25.7127 24.3258C25.7127 23.7356 25.7914 23.165 25.9488 22.6141C26.1062 22.0632 26.3423 21.5451 26.6571 21.0597C26.9719 20.5744 27.3457 20.1416 27.7786 19.7612C28.4706 19.153 28.7668 18.0985 28.0742 17.491C28.0544 17.4737 28.0346 17.4566 28.0147 17.4395C27.5556 17.046 27.0572 16.6984 26.5194 16.3967C25.9816 16.095 25.4175 15.8786 24.8273 15.7474C24.237 15.6162 23.6271 15.5375 22.9975 15.5113C21.9481 15.5113 20.9447 15.7146 19.9871 16.1212C19.3999 16.3706 18.8595 16.6915 18.366 17.084C17.7847 17.5463 17.672 18.3442 17.8166 19.0727C17.9126 19.5565 17.9606 20.0483 17.9606 20.5482C17.9606 21.7549 17.6917 22.8895 17.1539 23.952C17.0435 24.1702 16.9239 24.3811 16.7953 24.5849C16.1056 25.677 16.2441 27.3454 17.1932 28.2216C17.8753 28.8512 18.4656 29.5595 18.964 30.3465C19.4625 31.1335 19.8363 31.973 20.0855 32.865C20.2246 33.3626 20.3269 33.8726 20.3924 34.3947C20.4793 35.0867 19.9087 35.6589 19.2113 35.6589C18.5205 35.6589 17.9727 35.0952 17.8613 34.4134C17.7661 33.8308 17.6024 33.2688 17.3703 32.7272C16.9768 31.809 16.439 31.0089 15.7569 30.3268C15.0749 29.6448 14.2682 29.1004 13.3369 28.6938C12.4056 28.2872 11.4284 28.0904 10.4052 28.1035C9.35589 28.1035 8.37868 28.3003 7.47362 28.6938C6.56855 29.0873 5.76842 29.6251 5.07322 30.3072C4.37803 30.9892 3.83367 31.7959 3.44017 32.7272C3.21044 33.2709 3.04777 33.8302 2.95216 34.4052C2.83808 35.0912 2.28613 35.6589 1.59068 35.6589C0.895234 35.6589 0.322462 35.0929 0.409033 34.4028C0.473794 33.8866 0.579106 33.3806 0.724967 32.8846C0.987306 31.9927 1.36114 31.1532 1.84646 30.3662C2.33179 29.5792 2.91549 28.8709 3.59757 28.2412C4.55884 27.3539 4.69527 25.6706 4.00079 24.5619C3.87761 24.3653 3.76287 24.162 3.6566 23.952C3.1188 22.8895 2.84991 21.7549 2.84991 20.5482C2.84991 19.5119 3.04666 18.5347 3.44017 17.6166C3.83367 16.6984 4.37147 15.8982 5.05355 15.2162C5.73562 14.5341 6.53576 13.9897 7.45394 13.5831C8.37212 13.1765 9.35589 12.9797 10.4052 12.9928C11.5202 12.9928 12.5761 13.2289 13.573 13.7012C14.1418 13.9706 14.6679 14.2998 15.1513 14.6888C15.7517 15.172 16.6307 15.2108 17.2719 14.7833C17.8346 14.4082 17.8934 13.5674 17.4345 13.0707C16.9631 12.5604 16.5679 11.9901 16.2488 11.3598C15.711 10.2973 15.4421 9.16271 15.4421 7.95595C15.4421 6.91972 15.6389 5.94251 16.0324 5.02432C16.4259 4.10614 16.9637 3.30601 17.6458 2.62393C18.3279 1.94185 19.128 1.3975 20.0462 0.990875C20.9644 0.584251 21.9481 0.387498 22.9975 0.400615C24.0337 0.400615 25.0109 0.597368 25.9291 0.990875C26.8473 1.38438 27.6474 1.92218 28.3295 2.60425C29.0116 3.28633 29.5559 4.09302 29.9625 5.02432C30.3692 5.95562 30.5659 6.93283 30.5528 7.95595C30.5528 9.16271 30.2839 10.2973 29.7461 11.3598C29.6734 11.5035 29.5967 11.644 29.5161 11.7815C28.7987 13.0041 28.933 14.832 29.9625 15.8064C30.4196 16.239 30.8335 16.7147 31.2042 17.2336C31.6259 17.8239 32.2876 18.1986 33.0002 18.3345C33.412 18.4131 33.8095 18.5344 34.1928 18.6987C34.9273 19.0135 35.5766 19.4529 36.1406 20.0169C36.7046 20.581 37.1375 21.2237 37.4392 21.9451C37.7409 22.6666 37.8983 23.4601 37.9114 24.3258C37.9114 25.2703 37.7081 26.1622 37.3015 27.0017ZM10.4052 25.5851C11.1004 25.5851 11.7497 25.4539 12.3531 25.1916C12.9565 24.9292 13.4943 24.5685 13.9665 24.1094C14.4387 23.6503 14.7994 23.1191 15.0486 22.5157C15.2978 21.9123 15.429 21.2565 15.4421 20.5482C15.4421 19.853 15.311 19.2037 15.0486 18.6003C14.7863 17.9969 14.4256 17.4591 13.9665 16.9869C13.5074 16.5147 12.9762 16.154 12.3728 15.9048C11.7694 15.6556 11.1136 15.5244 10.4052 15.5113C9.71005 15.5113 9.06076 15.6425 8.45738 15.9048C7.854 16.1671 7.31621 16.5278 6.844 16.9869C6.37179 17.446 6.01108 17.9773 5.76186 18.5806C5.51264 19.184 5.38147 19.8399 5.36835 20.5482C5.36835 21.2434 5.49952 21.8927 5.76186 22.496C6.0242 23.0994 6.38491 23.6372 6.844 24.1094C7.3031 24.5816 7.83433 24.9423 8.43771 25.1916C9.04108 25.4408 9.69693 25.572 10.4052 25.5851ZM17.9606 7.95595C17.9606 8.65115 18.0917 9.30043 18.3541 9.90381C18.6164 10.5072 18.9771 11.045 19.4362 11.5172C19.8953 11.9894 20.4266 12.3501 21.0299 12.5993C21.6333 12.8486 22.2892 12.9797 22.9975 12.9928C23.6927 12.9928 24.342 12.8617 24.9453 12.5993C25.5487 12.337 26.0865 11.9763 26.5587 11.5172C27.0309 11.0581 27.3916 10.5269 27.6409 9.92349C27.8901 9.32011 28.0212 8.66426 28.0344 7.95595C28.0344 7.26076 27.9032 6.61147 27.6409 6.00809C27.3785 5.40471 27.0178 4.86692 26.5587 4.39471C26.0996 3.9225 25.5684 3.56179 24.965 3.31257C24.3616 3.06335 23.7058 2.93218 22.9975 2.91906C22.3023 2.91906 21.653 3.05023 21.0496 3.31257C20.4462 3.57491 19.9084 3.93562 19.4362 4.39471C18.964 4.8538 18.6033 5.38504 18.3541 5.98842C18.1049 6.59179 17.9737 7.24764 17.9606 7.95595ZM31.812 20.3514C31.2611 20.3514 30.7496 20.4564 30.2774 20.6662C29.8051 20.8761 29.3854 21.1581 29.0181 21.5123C28.6509 21.8664 28.3623 22.2862 28.1524 22.7715C27.9425 23.2568 27.8376 23.7749 27.8376 24.3258C27.8376 24.8768 27.9425 25.3883 28.1524 25.8605C28.3623 26.3327 28.6443 26.7525 28.9985 27.1197C29.3526 27.487 29.7724 27.7756 30.2577 27.9855C30.743 28.1953 31.2611 28.3003 31.812 28.3003C32.3629 28.3003 32.8745 28.1953 33.3467 27.9855C33.8189 27.7756 34.2387 27.4936 34.6059 27.1394C34.9732 26.7853 35.2618 26.3655 35.4716 25.8802C35.6815 25.3949 35.7865 24.8768 35.7865 24.3258C35.7865 23.7749 35.6815 23.2634 35.4716 22.7912C35.2618 22.319 34.9798 21.8992 34.6256 21.5319C34.2715 21.1647 33.8517 20.8761 33.3664 20.6662C32.8811 20.4564 32.3629 20.3514 31.812 20.3514Z" fill="var(--fill-0, #004172)"/>
<path d="M37.3015 27.0017C36.7395 28.1618 36.9055 29.844 37.8249 30.7475C38.1539 31.0708 38.4582 31.4225 38.7378 31.8025C39.3279 32.6047 39.7657 33.4783 40.0512 34.4231C40.2439 35.0609 39.7296 35.6589 39.0634 35.6589C38.5431 35.6589 38.106 35.2855 37.9366 34.7936C37.7899 34.3677 37.5978 33.961 37.3605 33.5733C36.967 32.9305 36.4882 32.3796 35.9242 31.9205C35.3602 31.4614 34.724 31.0942 34.0157 30.8187C33.3074 30.5433 32.5728 30.4121 31.812 30.4252C31.0381 30.4252 30.3036 30.5564 29.6084 30.8187C28.9132 31.0811 28.277 31.4418 27.6999 31.9009C27.1227 32.36 26.644 32.9174 26.2636 33.5733C26.0341 33.9689 25.8452 34.3789 25.6969 34.8032C25.5257 35.2928 25.0863 35.6589 24.5676 35.6589C23.8959 35.6589 23.3754 35.0585 23.5683 34.4151C23.8475 33.4836 24.2802 32.6193 24.8666 31.8222C25.1537 31.4319 25.4677 31.0707 25.8085 30.7387C26.7335 29.8377 26.9052 28.1638 26.3423 27.0017C25.9357 26.1622 25.7258 25.2703 25.7127 24.3258C25.7127 23.7356 25.7914 23.165 25.9488 22.6141C26.1062 22.0632 26.3423 21.5451 26.6571 21.0597C26.9719 20.5744 27.3457 20.1416 27.7786 19.7612C28.4706 19.153 28.7668 18.0985 28.0742 17.491C28.0544 17.4737 28.0346 17.4566 28.0147 17.4395C27.5556 17.046 27.0572 16.6984 26.5194 16.3967C25.9816 16.095 25.4175 15.8786 24.8273 15.7474C24.237 15.6162 23.6271 15.5375 22.9975 15.5113C21.9481 15.5113 20.9447 15.7146 19.9871 16.1212C19.3999 16.3706 18.8595 16.6915 18.366 17.084C17.7847 17.5463 17.672 18.3442 17.8166 19.0727C17.9126 19.5565 17.9606 20.0483 17.9606 20.5482C17.9606 21.7549 17.6917 22.8895 17.1539 23.952C17.0435 24.1702 16.9239 24.3811 16.7953 24.5849C16.1056 25.677 16.2441 27.3454 17.1932 28.2216C17.8753 28.8512 18.4656 29.5595 18.964 30.3465C19.4625 31.1335 19.8363 31.973 20.0855 32.865C20.2246 33.3626 20.3269 33.8726 20.3924 34.3947C20.4793 35.0867 19.9087 35.6589 19.2113 35.6589C18.5205 35.6589 17.9727 35.0952 17.8613 34.4134C17.7661 33.8308 17.6024 33.2688 17.3703 32.7272C16.9768 31.809 16.439 31.0089 15.7569 30.3268C15.0749 29.6448 14.2682 29.1004 13.3369 28.6938C12.4056 28.2872 11.4284 28.0904 10.4052 28.1035C9.35589 28.1035 8.37868 28.3003 7.47362 28.6938C6.56855 29.0873 5.76842 29.6251 5.07322 30.3072C4.37803 30.9892 3.83367 31.7959 3.44017 32.7272C3.21044 33.2709 3.04777 33.8302 2.95216 34.4052C2.83808 35.0912 2.28613 35.6589 1.59068 35.6589C0.895234 35.6589 0.322462 35.0929 0.409033 34.4028C0.473794 33.8866 0.579106 33.3806 0.724967 32.8846C0.987306 31.9927 1.36114 31.1532 1.84646 30.3662C2.33179 29.5792 2.91549 28.8709 3.59757 28.2412C4.55884 27.3539 4.69527 25.6706 4.00079 24.5619C3.87761 24.3653 3.76287 24.162 3.6566 23.952C3.1188 22.8895 2.84991 21.7549 2.84991 20.5482C2.84991 19.5119 3.04666 18.5347 3.44017 17.6166C3.83367 16.6984 4.37147 15.8982 5.05355 15.2162C5.73562 14.5341 6.53576 13.9897 7.45394 13.5831C8.37212 13.1765 9.35589 12.9797 10.4052 12.9928C11.5202 12.9928 12.5761 13.2289 13.573 13.7012C14.1418 13.9706 14.6679 14.2998 15.1513 14.6888C15.7517 15.172 16.6307 15.2108 17.2719 14.7833C17.8346 14.4082 17.8934 13.5674 17.4345 13.0707C16.9631 12.5604 16.5679 11.9901 16.2488 11.3598C15.711 10.2973 15.4421 9.16271 15.4421 7.95595C15.4421 6.91972 15.6389 5.94251 16.0324 5.02432C16.4259 4.10614 16.9637 3.30601 17.6458 2.62393C18.3279 1.94185 19.128 1.3975 20.0462 0.990875C20.9644 0.584251 21.9481 0.387498 22.9975 0.400615C24.0337 0.400615 25.0109 0.597368 25.9291 0.990875C26.8473 1.38438 27.6474 1.92218 28.3295 2.60425C29.0116 3.28633 29.5559 4.09302 29.9625 5.02432C30.3692 5.95562 30.5659 6.93283 30.5528 7.95595C30.5528 9.16271 30.2839 10.2973 29.7461 11.3598C29.6734 11.5035 29.5967 11.644 29.5161 11.7815C28.7987 13.0041 28.933 14.832 29.9625 15.8064C30.4196 16.239 30.8335 16.7147 31.2042 17.2336C31.6259 17.8239 32.2876 18.1986 33.0002 18.3345C33.412 18.4131 33.8095 18.5344 34.1928 18.6987C34.9273 19.0135 35.5766 19.4529 36.1406 20.0169C36.7046 20.581 37.1375 21.2237 37.4392 21.9451C37.7409 22.6666 37.8983 23.4601 37.9114 24.3258C37.9114 25.2703 37.7081 26.1622 37.3015 27.0017ZM10.4052 25.5851C11.1004 25.5851 11.7497 25.4539 12.3531 25.1916C12.9565 24.9292 13.4943 24.5685 13.9665 24.1094C14.4387 23.6503 14.7994 23.1191 15.0486 22.5157C15.2978 21.9123 15.429 21.2565 15.4421 20.5482C15.4421 19.853 15.311 19.2037 15.0486 18.6003C14.7863 17.9969 14.4256 17.4591 13.9665 16.9869C13.5074 16.5147 12.9762 16.154 12.3728 15.9048C11.7694 15.6556 11.1136 15.5244 10.4052 15.5113C9.71005 15.5113 9.06076 15.6425 8.45738 15.9048C7.854 16.1671 7.31621 16.5278 6.844 16.9869C6.37179 17.446 6.01108 17.9773 5.76186 18.5806C5.51264 19.184 5.38147 19.8399 5.36835 20.5482C5.36835 21.2434 5.49952 21.8927 5.76186 22.496C6.0242 23.0994 6.38491 23.6372 6.844 24.1094C7.3031 24.5816 7.83433 24.9423 8.43771 25.1916C9.04108 25.4408 9.69693 25.572 10.4052 25.5851ZM17.9606 7.95595C17.9606 8.65115 18.0917 9.30043 18.3541 9.90381C18.6164 10.5072 18.9771 11.045 19.4362 11.5172C19.8953 11.9894 20.4266 12.3501 21.0299 12.5993C21.6333 12.8486 22.2892 12.9797 22.9975 12.9928C23.6927 12.9928 24.342 12.8617 24.9453 12.5993C25.5487 12.337 26.0865 11.9763 26.5587 11.5172C27.0309 11.0581 27.3916 10.5269 27.6409 9.92349C27.8901 9.32011 28.0212 8.66426 28.0344 7.95595C28.0344 7.26076 27.9032 6.61147 27.6409 6.00809C27.3785 5.40471 27.0178 4.86692 26.5587 4.39471C26.0996 3.9225 25.5684 3.56179 24.965 3.31257C24.3616 3.06335 23.7058 2.93218 22.9975 2.91906C22.3023 2.91906 21.653 3.05023 21.0496 3.31257C20.4462 3.57491 19.9084 3.93562 19.4362 4.39471C18.964 4.8538 18.6033 5.38504 18.3541 5.98842C18.1049 6.59179 17.9737 7.24764 17.9606 7.95595ZM31.812 20.3514C31.2611 20.3514 30.7496 20.4564 30.2774 20.6662C29.8051 20.8761 29.3854 21.1581 29.0181 21.5123C28.6509 21.8664 28.3623 22.2862 28.1524 22.7715C27.9425 23.2568 27.8376 23.7749 27.8376 24.3258C27.8376 24.8768 27.9425 25.3883 28.1524 25.8605C28.3623 26.3327 28.6443 26.7525 28.9985 27.1197C29.3526 27.487 29.7724 27.7756 30.2577 27.9855C30.743 28.1953 31.2611 28.3003 31.812 28.3003C32.3629 28.3003 32.8745 28.1953 33.3467 27.9855C33.8189 27.7756 34.2387 27.4936 34.6059 27.1394C34.9732 26.7853 35.2618 26.3655 35.4716 25.8802C35.6815 25.3949 35.7865 24.8768 35.7865 24.3258C35.7865 23.7749 35.6815 23.2634 35.4716 22.7912C35.2618 22.319 34.9798 21.8992 34.6256 21.5319C34.2715 21.1647 33.8517 20.8761 33.3664 20.6662C32.8811 20.4564 32.3629 20.3514 31.812 20.3514Z" stroke="var(--stroke-0, #004172)" stroke-width="0.8" stroke-linejoin="round" mask="url(#path-1-outside-1_0_125)"/>
</g>
</svg>
