<svg preserveAspectRatio="none" width="100%" height="100%" overflow="visible" style="display: block;" viewBox="0 0 19.8 18.0001" fill="none" xmlns="http://www.w3.org/2000/svg">
<g id="Group">
<path id="Vector" d="M9.89995 4.5001V8.1001M11.7 17.1001V14.4001C11.7 13.9227 11.5103 13.4649 11.1727 13.1273C10.8352 12.7897 10.3773 12.6001 9.89995 12.6001C9.42256 12.6001 8.96472 12.7897 8.62716 13.1273C8.28959 13.4649 8.09995 13.9227 8.09995 14.4001V17.1001M11.7 6.3001H8.09995" stroke="var(--stroke-0, black)" stroke-width="1.8" stroke-linecap="round" stroke-linejoin="round"/>
<path id="Vector_2" d="M15.3 8.1H17.1C17.5774 8.1 18.0352 8.28964 18.3728 8.62721C18.7104 8.96477 18.9 9.42261 18.9 9.9V15.3C18.9 15.7774 18.7104 16.2352 18.3728 16.5728C18.0352 16.9104 17.5774 17.1 17.1 17.1H2.7C2.22261 17.1 1.76477 16.9104 1.42721 16.5728C1.08964 16.2352 0.9 15.7774 0.9 15.3V7.2C0.9 6.72261 1.08964 6.26477 1.42721 5.92721C1.76477 5.58964 2.22261 5.4 2.7 5.4H4.5" stroke="var(--stroke-0, black)" stroke-width="1.8" stroke-linecap="round" stroke-linejoin="round"/>
<path id="Vector_3" d="M15.3 17.1V2.7C15.3 2.22261 15.1103 1.76477 14.7728 1.42721C14.4352 1.08964 13.9774 0.9 13.5 0.9H6.29998C5.82259 0.9 5.36475 1.08964 5.02718 1.42721C4.68962 1.76477 4.49998 2.22261 4.49998 2.7V17.1" stroke="var(--stroke-0, black)" stroke-width="1.8" stroke-linecap="round" stroke-linejoin="round"/>
</g>
</svg>
