<svg preserveAspectRatio="none" width="100%" height="100%" overflow="visible" style="display: block;" viewBox="0 0 18.6018 18.5965" fill="none" xmlns="http://www.w3.org/2000/svg">
<g id="Group">
<path id="Vector" d="M15.8439 5.16751C15.9082 5.18319 15.975 5.18594 16.0404 5.17559C16.1058 5.16525 16.1685 5.14202 16.2248 5.10724C16.2812 5.07247 16.3301 5.02685 16.3687 4.97304C16.4072 4.91922 16.4347 4.85828 16.4496 4.79374C16.4644 4.72921 16.4663 4.66238 16.4551 4.59711C16.4439 4.53185 16.4198 4.46947 16.3843 4.41358C16.3488 4.35769 16.3025 4.30942 16.2482 4.27155C16.1939 4.23369 16.1326 4.20699 16.0679 4.19301L12.7599 3.43301C12.695 3.41577 12.6274 3.41175 12.561 3.42119C12.4945 3.43063 12.4307 3.45335 12.3732 3.48798C12.3158 3.52261 12.2659 3.56845 12.2265 3.62276C12.1871 3.67708 12.1591 3.73877 12.1441 3.80415C12.129 3.86953 12.1273 3.93726 12.139 4.00333C12.1507 4.06939 12.1755 4.13242 12.2121 4.18867C12.2487 4.24492 12.2962 4.29324 12.3518 4.33075C12.4074 4.36826 12.47 4.3942 12.5359 4.40701L15.8439 5.16751Z" fill="var(--fill-0, black)" stroke="var(--stroke-0, black)" stroke-width="0.5"/>
<path id="Vector_2" fill-rule="evenodd" clip-rule="evenodd" d="M14.3018 8.3C15.3626 8.3 16.3801 7.87857 17.1302 7.12843C17.8803 6.37828 18.3018 5.36087 18.3018 4.3C18.3018 3.23913 17.8803 2.22172 17.1302 1.47157C16.3801 0.721427 15.3626 0.3 14.3018 0.3C13.2409 0.3 12.2235 0.721427 11.4733 1.47157C10.7232 2.22172 10.3018 3.23913 10.3018 4.3C10.3018 5.36087 10.7232 6.37828 11.4733 7.12843C12.2235 7.87857 13.2409 8.3 14.3018 8.3ZM14.3018 7.3C14.6957 7.3 15.0859 7.2224 15.4498 7.07164C15.8138 6.92087 16.1445 6.6999 16.4231 6.42132C16.7017 6.14274 16.9227 5.81203 17.0734 5.44805C17.2242 5.08407 17.3018 4.69397 17.3018 4.3C17.3018 3.90603 17.2242 3.51593 17.0734 3.15195C16.9227 2.78797 16.7017 2.45726 16.4231 2.17868C16.1445 1.9001 15.8138 1.67913 15.4498 1.52836C15.0859 1.3776 14.6957 1.3 14.3018 1.3C13.5061 1.3 12.7431 1.61607 12.1805 2.17868C11.6178 2.74129 11.3018 3.50435 11.3018 4.3C11.3018 5.09565 11.6178 5.85871 12.1805 6.42132C12.7431 6.98393 13.5061 7.3 14.3018 7.3ZM5.69078 1.9225C5.36728 1.1565 4.28428 1.0795 3.84978 1.791L0.447776 7.3575C0.0552765 7.9995 0.493777 8.8195 1.25928 8.874L7.19228 9.297C7.95728 9.352 8.51428 8.603 8.22228 7.912L5.69078 1.9225ZM4.70728 2.3065L4.70278 2.3125L1.30678 7.87L1.30778 7.871L1.31278 7.873C1.31851 7.87527 1.32461 7.87645 1.33078 7.8765L7.26428 8.2995H7.28328C7.28849 8.29781 7.29339 8.29528 7.29778 8.292L4.76978 2.312L4.76778 2.307C4.75962 2.30215 4.75026 2.29972 4.74078 2.3C4.73023 2.29895 4.71959 2.3005 4.70978 2.3045L4.70828 2.305L4.70728 2.3065ZM14.9943 15.48C15.7154 15.1438 16.2734 14.5348 16.5456 13.7872C16.8177 13.0395 16.7818 12.2144 16.4455 11.4932C16.1093 10.7721 15.5004 10.2141 14.7527 9.94194C14.0051 9.66978 13.1799 9.70577 12.4588 10.042L7.02078 12.577C6.29959 12.9132 5.7415 13.5222 5.46929 14.2699C5.19708 15.0176 5.23305 15.8428 5.56928 16.564C5.9055 17.2852 6.51445 17.8433 7.26216 18.1155C8.00987 18.3877 8.83509 18.3517 9.55628 18.0155L14.9943 15.48ZM7.44328 13.484C7.20263 13.5933 6.98603 13.7493 6.80602 13.9428C6.626 14.1364 6.48614 14.3637 6.39451 14.6116C6.30288 14.8595 6.2613 15.1231 6.27218 15.3872C6.28306 15.6513 6.34618 15.9107 6.4579 16.1502C6.56961 16.3898 6.7277 16.6048 6.92302 16.7829C7.11835 16.9609 7.34704 17.0985 7.59586 17.1877C7.84469 17.2769 8.10873 17.3158 8.3727 17.3023C8.63667 17.2888 8.89535 17.2231 9.13378 17.109L11.3668 16.0675L9.67678 12.4425L7.44328 13.484ZM12.2733 15.645L10.5828 12.02L12.8813 10.948C13.1199 10.8326 13.379 10.7657 13.6437 10.7514C13.9084 10.737 14.1732 10.7753 14.4229 10.8642C14.6726 10.9531 14.9022 11.0908 15.0982 11.2691C15.2943 11.4475 15.4529 11.6631 15.5649 11.9033C15.6769 12.1436 15.74 12.4036 15.7506 12.6685C15.7612 12.9333 15.719 13.1976 15.6266 13.446C15.5341 13.6944 15.3932 13.922 15.2121 14.1155C15.0309 14.3089 14.8131 14.4645 14.5713 14.573L12.2733 15.645Z" fill="var(--fill-0, black)" stroke="var(--stroke-0, black)" stroke-width="0.6"/>
</g>
</svg>
